{"glyphs":{"0":{"ha":724,"x_min":0,"x_max":0,"o":"m 358 617 b 288 808 358 694 338 772 b 386 899 314 842 346 882 b 426 907 400 904 414 907 b 525 840 471 907 507 875 b 550 732 542 807 546 769 b 557 592 554 685 557 639 b 531 357 557 513 550 433 b 500 285 524 332 515 306 b 435 246 486 265 465 246 b 346 383 368 246 346 317 b 358 617 346 463 358 536 z m 296 651 l 296 643 b 288 633 296 638 292 633 l 282 633 b 271 640 278 635 274 638 b 210 721 247 661 219 685 l 210 731 b 231 746 210 742 219 746 b 296 651 272 746 296 690 z m 543 918 l 539 918 b 533 922 536 919 536 921 b 499 961 521 933 507 946 b 496 972 497 964 496 968 l 496 978 b 519 985 496 989 511 989 b 549 929 536 976 549 951 l 549 925 b 543 918 549 921 547 918 z m 222 832 b 208 831 218 832 213 831 b 72 629 113 818 88 719 b 56 439 63 567 56 503 b 60 357 56 411 57 385 b 171 110 71 267 106 174 b 350 31 211 69 275 31 b 624 276 500 31 582 164 b 681 585 661 375 681 479 b 642 838 681 671 668 756 b 439 1036 614 928 553 1036 b 375 1024 418 1036 397 1032 b 222 832 297 993 250 910 z "},"1":{"ha":410,"x_min":0,"x_max":0,"o":"m 314 168 b 350 581 340 304 350 442 b 342 818 350 660 347 739 b 313 957 339 865 333 914 b 203 1035 293 993 256 1035 b 140 1015 181 1035 158 1028 b 61 840 90 981 69 910 b 51 669 54 783 51 726 b 115 181 51 506 78 340 b 150 90 122 149 131 117 b 219 50 165 71 188 50 b 314 168 282 50 306 115 z m 290 886 l 286 886 b 267 911 272 886 271 900 b 249 950 264 928 258 940 b 224 975 243 956 224 967 l 224 981 b 232 988 224 983 229 988 b 244 988 236 989 240 989 b 299 896 281 975 299 942 b 297 892 299 894 297 893 b 290 886 297 888 294 886 z "},"2":{"ha":693,"x_min":0,"x_max":0,"o":"m 383 1075 b 89 888 249 1075 153 975 b 36 763 67 856 36 814 b 139 647 36 699 81 647 b 257 725 194 647 225 696 b 322 760 272 740 296 760 b 393 668 368 760 393 715 b 253 494 393 569 311 533 b 113 367 201 461 154 418 b 67 251 90 338 67 301 b 354 83 67 113 218 83 b 547 110 419 83 483 93 b 590 124 561 114 576 117 b 656 238 629 143 656 183 b 640 311 656 263 650 289 b 531 397 621 351 585 397 b 383 356 481 397 435 356 b 369 357 379 356 374 357 b 344 379 353 357 349 367 b 363 410 340 393 354 406 b 546 588 433 450 497 513 b 619 808 583 644 619 719 b 383 1075 619 949 521 1075 z m 531 889 l 525 889 b 515 896 521 890 518 893 b 492 924 507 904 500 914 b 468 953 483 933 475 942 b 463 967 465 957 463 961 l 463 975 b 483 988 463 983 475 990 b 538 906 513 978 538 942 l 538 899 b 531 889 538 894 533 889 z m 589 254 l 583 254 b 574 261 579 256 576 258 b 550 289 565 269 558 279 b 521 332 540 300 521 314 l 521 340 b 542 351 521 350 532 354 b 596 271 572 342 596 307 l 596 264 b 589 254 596 260 592 254 z "},"3":{"ha":822,"x_min":0,"x_max":0,"o":"m 389 282 b 161 331 307 282 242 331 b 33 215 86 331 33 285 b 63 131 33 185 44 154 b 268 36 107 74 183 49 b 428 21 321 28 375 21 b 600 50 486 21 544 29 b 792 296 694 85 792 174 b 751 422 792 343 776 385 b 582 538 714 479 654 518 b 682 724 633 578 682 640 b 532 913 682 819 603 886 b 294 946 457 940 382 946 b 210 938 265 946 238 944 b 93 810 153 924 93 881 b 168 703 93 758 132 717 b 219 694 185 697 201 694 b 356 710 265 694 313 710 b 458 629 406 710 458 682 b 322 544 458 561 382 554 b 239 479 288 539 239 519 b 283 446 239 458 260 446 b 296 447 288 446 292 446 b 417 465 336 451 378 457 b 511 378 460 453 511 435 b 389 282 511 317 446 282 z m 638 733 b 631 735 635 733 633 735 b 594 769 611 739 603 756 b 544 822 582 790 565 810 b 503 858 529 832 507 840 b 526 878 503 872 513 878 b 578 847 550 878 567 858 b 622 803 593 833 608 818 b 649 750 633 789 649 772 l 649 743 b 638 733 649 739 642 733 z m 728 329 l 721 329 b 685 364 701 333 693 350 b 635 418 672 385 656 406 b 593 453 619 428 597 433 b 617 472 593 467 603 472 b 668 442 640 472 657 453 b 713 397 683 428 699 413 b 739 344 724 383 739 367 l 739 338 b 728 329 739 333 732 329 z "},"4":{"ha":754,"x_min":0,"x_max":0,"o":"m 228 379 b 436 735 285 504 361 619 b 519 943 476 799 519 860 b 501 1019 519 969 514 996 b 386 1094 482 1057 442 1094 b 344 1088 372 1094 360 1092 b 188 906 260 1061 219 983 b 72 513 136 778 103 646 b 50 364 61 464 50 414 b 68 278 50 335 53 303 b 257 196 103 219 174 203 b 388 188 300 192 344 188 b 478 194 418 188 449 190 b 499 97 485 163 490 129 b 593 -12 511 50 532 -12 b 669 88 640 -12 661 44 b 701 447 692 206 701 326 b 694 636 701 510 699 574 b 669 753 692 676 688 717 b 574 818 653 785 619 818 b 453 654 489 818 461 728 b 444 504 447 604 444 554 b 454 338 444 449 447 393 b 400 340 436 339 418 340 l 333 340 b 233 351 297 340 263 342 b 228 379 224 356 222 368 z m 424 975 b 411 940 424 961 419 949 l 406 940 b 401 943 404 940 403 942 b 381 1003 389 956 383 983 b 381 1017 381 1007 379 1013 b 394 1028 381 1025 388 1028 b 424 975 414 1028 424 996 z m 650 693 l 646 693 b 629 714 636 693 629 706 b 614 747 625 728 625 739 b 593 768 608 751 593 760 l 593 772 b 600 778 593 775 597 778 b 611 778 603 779 607 779 b 657 701 642 768 657 740 b 656 699 657 700 656 700 b 650 693 656 696 653 693 z "},"5":{"ha":864,"x_min":0,"x_max":0,"o":"m 706 479 l 697 479 b 685 486 692 481 689 483 b 635 540 665 501 653 524 b 579 590 617 558 594 569 b 574 607 575 596 574 601 b 604 629 574 619 586 629 b 658 599 628 626 643 611 b 717 500 683 576 717 543 b 715 489 717 496 715 492 b 706 479 715 483 711 479 z m 600 819 b 681 833 628 819 654 822 b 753 925 715 847 753 881 b 736 976 753 943 747 960 b 490 1049 696 1038 586 1049 b 226 1015 403 1049 313 1035 b 113 965 182 1007 140 993 b 64 811 76 929 71 875 b 56 689 60 771 56 729 b 67 589 56 653 57 619 b 60 557 61 578 60 567 b 154 475 60 510 104 475 b 261 518 197 475 235 500 b 414 590 300 544 353 590 b 536 471 481 590 536 536 b 524 421 536 454 532 438 b 349 346 494 367 428 346 b 251 350 317 346 282 350 b 93 297 185 350 129 339 b 63 214 74 275 63 243 b 89 131 63 185 72 156 b 376 32 142 54 251 32 b 606 76 456 32 533 44 b 831 392 721 125 831 231 b 817 486 831 422 826 453 b 554 732 781 606 678 701 b 457 744 521 740 488 744 b 226 690 371 744 294 717 b 214 781 224 710 214 749 b 250 835 214 811 222 835 l 329 840 b 600 819 419 840 508 819 z m 671 890 l 664 890 b 613 915 644 894 629 908 b 576 957 596 924 576 936 b 606 979 576 969 585 979 b 635 968 617 978 626 974 b 682 906 654 956 682 936 b 681 899 682 903 681 901 b 671 890 681 894 676 890 z "},"6":{"ha":810,"x_min":0,"x_max":0,"o":"m 453 1054 b 335 1031 413 1054 372 1047 b 85 696 204 976 125 839 b 51 464 63 617 51 539 b 149 133 51 342 82 226 b 383 -31 206 54 289 -7 b 468 -40 411 -37 440 -40 b 661 21 538 -40 606 -21 b 774 232 719 64 774 142 b 751 331 774 264 768 297 b 417 492 697 439 576 492 b 349 490 394 492 371 492 b 360 510 351 497 356 503 b 453 597 382 547 414 578 b 676 688 526 635 617 636 b 733 818 714 721 733 768 b 707 918 733 851 725 886 b 453 1054 664 996 564 1054 z m 656 772 l 649 772 b 619 819 633 778 626 804 b 578 890 608 849 597 871 b 544 938 564 904 549 915 b 546 947 544 940 546 944 b 549 957 546 950 547 954 b 583 953 556 971 578 958 b 643 864 607 929 626 896 b 665 793 653 844 665 819 b 664 785 665 790 664 788 b 656 772 664 781 660 772 z m 633 372 b 643 369 636 372 640 371 b 683 324 660 361 675 344 b 688 313 685 319 688 317 b 686 300 688 308 688 304 b 657 304 678 282 664 294 b 624 342 644 321 646 335 b 614 357 619 346 614 349 b 633 372 614 371 622 372 z m 511 156 b 450 175 488 156 467 167 b 358 264 413 196 381 226 b 346 286 354 271 350 279 b 526 265 407 278 468 282 b 579 211 551 258 579 243 b 511 156 579 178 543 156 z "},"7":{"ha":667,"x_min":0,"x_max":0,"o":"m 211 -94 b 336 -36 261 -94 307 -65 b 449 151 386 14 418 83 b 619 640 518 308 586 468 b 632 756 626 678 632 717 b 221 1099 632 996 421 1063 l 135 1108 b -14 974 51 1108 -14 1056 b 126 808 -14 882 56 824 b 179 803 144 804 161 803 b 392 849 256 803 328 835 l 397 849 b 406 840 401 849 406 844 l 406 835 b 400 824 404 831 403 826 b 139 371 299 685 217 529 b 58 113 100 292 58 211 b 211 -94 58 7 107 -94 z m 538 889 b 563 867 547 889 558 874 b 572 814 567 857 572 835 b 551 778 572 794 568 778 b 538 793 543 778 540 786 b 519 856 529 813 522 833 b 538 889 515 869 524 889 z "},"8":{"ha":793,"x_min":0,"x_max":0,"o":"m 557 965 b 600 903 583 965 600 924 b 599 899 600 901 599 900 b 593 892 599 894 597 892 l 589 892 b 543 938 569 901 554 918 b 539 949 542 940 539 944 l 539 954 b 557 965 539 961 550 965 z m 671 285 l 664 285 b 653 292 660 286 657 289 b 596 354 631 308 610 329 b 589 369 593 360 590 364 l 589 379 b 593 386 589 382 592 383 b 631 390 601 394 617 396 b 679 303 658 378 678 338 l 679 294 b 671 285 679 289 676 285 z m 281 301 b 336 476 281 372 317 419 b 382 428 351 461 367 444 b 447 290 413 394 447 350 b 363 194 447 240 415 194 b 281 301 307 194 281 247 z m 43 282 b 163 65 43 186 101 107 b 413 -6 235 14 325 -6 b 665 76 503 -6 596 18 b 757 260 711 114 757 181 b 749 318 757 278 754 299 b 561 529 719 414 631 471 b 706 810 632 588 706 694 b 675 933 706 850 696 892 b 436 1075 636 1008 546 1075 b 353 1063 410 1075 382 1071 b 149 800 246 1033 149 931 b 233 586 149 718 185 647 b 246 571 238 581 242 576 b 43 282 153 515 43 419 z m 568 722 b 485 607 568 660 522 635 b 442 722 460 640 442 678 b 499 796 442 764 461 796 b 568 722 540 796 568 763 z "},"9":{"ha":815,"x_min":0,"x_max":0,"o":"m 347 -56 b 489 -17 396 -56 446 -40 b 739 317 613 49 693 176 b 778 549 764 394 778 472 b 678 879 778 671 744 788 b 442 1042 621 958 536 1018 b 357 1051 414 1049 386 1051 b 161 992 288 1051 217 1032 b 26 722 76 932 26 831 b 88 526 26 656 46 588 b 421 358 153 432 272 358 b 538 372 458 358 501 365 b 535 365 536 369 536 368 b 456 267 519 325 492 290 b 343 222 422 244 382 233 b 189 131 282 204 221 182 b 175 81 179 114 175 97 b 347 -56 175 -7 271 -56 z m 578 881 b 661 775 613 864 653 824 l 661 768 b 638 736 661 751 653 736 b 564 822 599 736 592 806 b 526 858 547 832 526 831 b 554 886 526 878 539 886 b 578 881 563 886 571 885 z m 328 697 b 388 682 350 697 369 689 b 468 629 417 669 444 651 b 333 590 425 615 389 590 b 261 644 296 590 261 604 b 328 697 261 679 293 697 z "}," ":{"ha":458,"x_min":0,"x_max":0,"o":""},"!":{"ha":496,"x_min":0,"x_max":0,"o":"m 403 78 b 244 243 403 169 336 243 b 82 79 157 243 82 174 b 97 10 82 56 88 32 b 243 -90 118 -42 174 -90 b 403 78 329 -90 403 -14 z m 343 51 l 338 51 b 301 131 313 64 318 110 b 278 160 294 139 278 144 l 278 167 b 285 175 278 168 283 175 b 292 176 288 176 289 176 b 326 151 307 176 319 160 b 350 65 343 129 350 101 l 350 60 b 343 51 350 57 346 51 z m 342 439 b 428 800 371 560 410 678 b 436 894 432 832 436 863 b 414 1019 436 938 429 981 b 251 1143 390 1079 331 1143 b 90 1032 174 1143 115 1088 b 61 881 68 985 61 932 b 63 835 61 865 61 850 b 143 451 72 704 110 578 b 178 361 151 419 158 388 b 247 321 193 342 215 321 b 342 439 311 321 331 388 z m 361 907 l 354 907 b 333 929 343 911 336 918 l 329 946 b 306 1010 326 971 321 994 b 274 1049 294 1021 278 1031 l 274 1057 b 300 1068 274 1067 289 1071 b 369 944 344 1057 369 999 l 369 917 b 361 907 369 913 365 907 z "},"\"":{"ha":542,"x_min":0,"x_max":0,"o":"m 394 1044 b 313 971 350 1044 325 1004 b 299 886 303 943 299 914 b 343 679 299 811 326 740 b 392 621 350 654 358 621 b 433 681 418 621 428 653 b 478 919 449 761 478 839 b 458 1006 478 951 474 981 b 394 1044 446 1025 424 1044 z m 383 978 b 407 974 392 978 400 976 b 414 968 410 972 411 969 b 410 944 424 964 424 944 b 404 946 408 944 406 946 b 385 953 397 949 392 953 l 375 953 b 358 964 369 953 358 957 b 360 968 358 965 360 967 b 383 978 360 975 375 978 z m 158 1044 b 76 971 114 1044 89 1004 b 63 886 67 943 63 914 b 107 679 63 811 90 740 b 156 621 114 654 122 621 b 197 681 182 621 192 653 b 242 919 213 761 242 839 b 222 1006 242 951 238 981 b 158 1044 210 1025 188 1044 z m 147 978 b 171 974 156 978 164 976 b 178 968 174 972 175 969 b 174 944 188 964 188 944 b 168 946 172 944 169 946 b 149 953 161 949 156 953 l 139 953 b 122 964 133 953 122 957 b 124 968 122 965 124 967 b 147 978 124 975 139 978 z "},"#":{"ha":1150,"x_min":0,"x_max":0,"o":"m 936 900 b 929 925 936 908 933 918 b 925 938 928 929 925 933 b 926 946 925 940 926 943 b 935 953 926 950 929 953 b 956 944 943 956 951 949 b 968 893 963 935 968 913 b 935 839 968 865 958 839 b 924 851 929 839 924 846 b 936 900 924 871 936 881 z m 942 728 b 1014 904 969 779 1014 836 b 922 1011 1014 963 978 1011 b 897 1008 915 1011 906 1011 b 771 867 831 992 796 924 b 714 743 753 825 733 785 b 618 732 682 740 650 738 b 688 904 644 785 688 836 b 596 1011 688 963 651 1011 b 571 1008 589 1011 579 1011 b 444 867 504 992 469 924 b 353 665 414 799 383 732 b 268 639 325 657 296 647 b 206 586 242 631 206 618 b 281 549 206 558 249 549 l 299 549 b 211 350 269 482 239 417 b 146 329 189 343 168 336 b 83 276 119 321 83 308 b 158 239 83 249 126 239 l 165 239 b 124 104 150 200 124 153 b 190 25 124 60 147 25 b 285 106 242 25 265 72 b 356 231 310 147 332 189 b 486 226 399 229 443 226 b 450 104 472 192 450 147 b 517 25 450 60 474 25 b 611 106 568 25 592 72 b 683 232 636 147 660 189 b 801 249 724 236 763 240 b 924 336 853 258 924 282 b 888 392 924 360 907 381 b 785 425 863 407 825 418 b 846 546 806 465 825 506 b 1046 646 918 553 1046 569 b 942 728 1046 697 986 715 z m 610 900 b 603 925 610 908 607 918 b 599 938 601 929 599 933 b 600 946 599 940 600 943 b 608 953 600 950 603 953 b 629 944 617 956 625 949 b 642 893 636 935 642 913 b 608 839 642 865 632 839 b 597 851 603 839 597 846 b 610 900 597 871 610 881 z m 915 676 b 953 656 933 674 947 668 l 953 650 b 943 642 953 647 946 642 l 935 642 b 924 646 929 642 926 644 b 901 651 915 649 908 650 b 915 676 906 660 911 668 z m 517 539 b 619 535 551 538 585 535 b 574 432 604 500 589 467 b 453 414 533 428 490 421 b 517 539 474 456 496 497 z m 744 347 b 757 371 749 356 753 363 l 763 371 b 831 346 789 367 822 365 l 831 340 b 821 332 831 338 824 332 l 813 332 b 801 336 807 332 804 335 b 751 346 785 342 771 343 b 744 347 749 346 747 347 z "},"$":{"ha":835,"x_min":0,"x_max":0,"o":"m 499 719 b 538 644 531 719 532 672 b 638 554 547 600 585 554 b 667 558 647 554 657 556 b 758 707 722 576 758 636 b 563 981 758 835 657 943 b 518 994 549 986 533 992 l 518 1019 b 435 1133 515 1074 493 1133 b 382 1110 415 1133 396 1124 b 340 974 353 1081 340 1028 b 189 729 260 933 189 842 b 272 526 189 650 222 579 b 417 372 321 475 385 440 b 425 340 421 363 425 353 b 383 299 425 315 406 299 b 365 301 378 299 371 299 b 281 418 321 318 303 379 b 179 488 261 451 225 488 b 132 475 164 488 149 483 b 47 313 82 450 47 386 b 97 151 47 251 71 194 b 361 -37 156 54 243 -7 b 358 -81 360 -51 358 -65 b 442 -210 358 -144 379 -210 b 493 -186 461 -210 479 -200 b 535 -47 524 -156 535 -101 b 764 126 639 -32 728 35 b 781 211 775 156 781 183 b 718 376 781 276 753 335 b 476 646 642 469 519 519 b 469 681 474 657 469 669 b 499 719 469 699 481 719 z m 646 797 l 646 789 b 636 779 646 786 639 779 b 631 781 633 779 632 781 b 619 786 626 782 622 783 b 564 847 599 803 578 822 b 557 863 561 853 558 857 l 557 871 b 582 886 557 882 569 886 b 646 797 622 886 643 833 z m 699 232 b 693 233 696 232 694 233 b 682 240 689 235 685 238 b 626 300 661 257 640 275 b 619 315 624 306 621 310 l 619 325 b 624 332 619 328 622 329 b 660 336 631 339 647 342 b 708 250 688 325 707 283 b 707 243 708 247 707 246 b 699 232 707 239 703 232 z m 247 344 b 246 336 247 342 246 339 b 238 326 246 332 242 326 b 232 328 235 326 233 328 b 221 333 228 329 224 331 b 165 394 200 350 179 369 b 158 410 163 400 160 404 l 158 418 b 183 433 158 429 171 433 b 247 344 224 433 244 381 z m 425 1067 b 456 1058 438 1067 447 1063 b 450 1033 467 1053 463 1033 b 444 1035 449 1033 446 1035 b 425 1042 438 1038 432 1042 b 415 1043 422 1042 418 1043 b 400 1053 410 1043 400 1047 l 400 1057 b 425 1067 400 1065 417 1067 z "},"%":{"ha":950,"x_min":0,"x_max":0,"o":"m 783 1051 b 703 1024 754 1051 725 1039 b 608 915 664 996 635 956 b 93 185 442 668 244 442 b 57 83 75 154 57 122 b 126 3 57 38 82 3 b 236 75 179 3 211 43 b 801 772 426 306 614 539 b 878 900 833 811 865 851 b 883 940 882 914 883 928 b 783 1051 883 1000 843 1051 z m 832 932 b 793 860 832 900 817 868 b 774 875 782 860 774 863 b 796 932 774 897 796 907 b 789 971 796 944 789 958 b 801 985 789 979 793 985 b 832 932 824 985 832 953 z m 210 729 b 247 833 210 768 238 803 b 254 878 251 849 254 864 b 203 979 254 922 235 960 b 254 1003 215 992 233 1003 b 319 842 318 1003 319 904 b 306 728 319 803 315 765 b 257 672 299 706 288 672 b 210 729 226 672 210 700 z m 161 935 b 204 871 189 935 204 893 b 203 865 204 869 203 867 b 197 858 203 861 201 858 l 193 858 b 186 863 190 860 189 861 b 147 906 172 875 157 888 b 143 917 146 910 143 913 l 143 924 b 161 935 143 931 154 935 z m 296 1043 b 315 1014 308 1043 315 1024 b 314 1011 315 1013 314 1013 l 314 1010 l 313 1008 l 310 1008 b 307 1011 308 1008 308 1010 b 290 1031 300 1017 294 1022 b 288 1035 289 1032 288 1033 l 288 1038 b 296 1043 288 1042 293 1043 z m 696 168 b 733 272 696 207 724 242 b 740 317 738 288 740 303 b 689 418 740 361 721 399 b 740 442 701 431 719 442 b 806 281 804 442 806 343 b 792 167 806 242 801 204 b 743 111 785 144 774 111 b 696 168 713 111 696 139 z m 647 374 b 690 310 675 374 690 332 b 689 304 690 308 689 306 b 683 297 689 300 688 297 l 679 297 b 672 301 676 299 675 300 b 633 344 658 314 643 326 b 629 356 632 349 629 351 l 629 363 b 647 374 629 369 640 374 z m 782 482 b 801 453 794 482 801 463 b 800 450 801 451 800 451 l 800 449 l 799 447 l 796 447 b 793 450 794 447 794 449 b 776 469 786 456 781 461 b 774 474 775 471 774 472 l 774 476 b 782 482 774 481 779 482 z m 44 807 b 175 575 44 696 92 607 b 224 565 192 568 208 565 b 369 688 296 565 344 635 b 408 851 394 739 408 796 b 351 1017 408 913 390 969 b 258 1068 332 1042 300 1068 b 153 992 208 1068 169 1028 l 142 992 b 44 807 68 976 44 892 z m 531 246 b 661 14 531 135 578 46 b 710 4 678 7 694 4 b 856 126 782 4 831 74 b 894 290 881 178 894 235 b 838 456 894 351 876 408 b 744 507 818 481 786 507 b 639 431 694 507 656 467 l 628 431 b 531 246 554 415 531 331 z "},"&":{"ha":878,"x_min":0,"x_max":0,"o":"m 400 804 b 486 692 456 804 486 746 b 444 583 486 647 467 613 b 379 664 422 610 400 636 b 340 746 364 683 340 715 b 400 804 340 778 365 804 z m 765 421 b 753 401 765 414 760 401 l 747 401 b 728 426 735 401 728 414 b 747 447 728 438 733 447 b 765 421 763 447 765 435 z m 567 897 b 546 871 567 886 560 871 b 522 881 536 871 528 875 b 471 947 500 899 485 924 b 467 960 468 951 467 956 b 479 972 467 968 469 972 l 486 972 b 547 938 510 968 532 954 b 567 897 556 929 567 913 z m 811 407 b 750 488 811 450 792 488 b 671 426 708 488 688 453 b 640 365 660 407 650 386 b 515 501 599 411 557 456 b 669 800 583 574 669 678 b 375 1076 669 958 528 1076 b 85 794 218 1076 85 958 b 197 544 85 689 144 606 b 268 469 219 518 243 494 b 71 318 189 433 110 394 b 50 232 56 289 50 260 b 133 57 50 161 90 96 b 332 -12 182 14 250 -12 b 406 -6 356 -12 381 -10 b 590 74 472 7 535 35 b 699 -11 622 40 657 10 b 760 -29 714 -19 738 -29 b 844 69 813 -29 844 18 b 774 214 844 132 803 176 l 749 243 b 811 407 776 286 811 347 z m 417 126 b 301 236 351 126 301 172 b 368 368 301 296 336 336 b 390 342 375 360 383 350 b 517 164 436 286 475 224 b 417 126 490 143 454 126 z "},"'":{"ha":306,"x_min":0,"x_max":0,"o":"m 158 1044 b 76 971 114 1044 89 1004 b 63 886 67 943 63 914 b 107 679 63 811 90 740 b 156 621 114 654 122 621 b 197 681 182 621 192 653 b 242 919 213 761 242 839 b 222 1006 242 951 238 981 b 158 1044 210 1025 188 1044 z m 147 978 b 171 974 156 978 164 976 b 178 968 174 972 175 969 b 174 944 188 964 188 944 b 168 946 172 944 169 946 b 149 953 161 949 156 953 l 139 953 b 122 964 133 953 122 957 b 124 968 122 965 124 967 b 147 978 124 975 139 978 z "},"(":{"ha":619,"x_min":0,"x_max":0,"o":"m 467 1068 b 315 1011 407 1068 351 1036 b 13 389 133 886 35 658 b 8 294 10 358 8 326 b 100 -72 8 165 32 36 b 272 -233 142 -140 201 -197 b 432 -269 318 -257 376 -269 b 607 -194 506 -269 575 -247 b 622 -140 617 -178 622 -158 b 596 -81 622 -117 614 -96 b 471 -56 564 -54 519 -62 b 274 153 367 -42 306 63 b 226 404 244 233 226 319 b 238 518 226 443 229 481 b 443 814 264 649 340 756 b 579 904 490 840 547 861 b 597 960 592 921 597 940 b 467 1068 597 1028 533 1068 z m 514 925 b 507 928 511 925 510 926 b 469 975 492 939 483 961 b 451 997 465 979 451 989 b 465 1013 451 1006 456 1013 b 496 996 478 1013 489 1001 b 526 942 511 985 524 964 l 526 933 b 514 925 526 928 519 925 z m 519 -204 l 513 -204 b 501 -193 507 -201 504 -199 l 497 -176 b 481 -153 494 -167 489 -158 b 450 -124 469 -144 450 -142 b 481 -106 450 -110 467 -106 b 543 -165 511 -106 543 -133 b 519 -204 543 -178 533 -204 z "},")":{"ha":618,"x_min":0,"x_max":0,"o":"m 154 -271 b 304 -214 214 -271 267 -239 b 607 408 486 -87 585 138 b 611 503 610 439 611 471 b 519 869 611 632 588 761 b 347 1031 478 938 418 994 b 188 1067 301 1054 243 1067 b 13 992 114 1067 44 1044 b -4 938 1 975 -4 956 b 24 878 -4 915 6 893 b 149 853 56 851 100 860 b 346 644 253 839 314 735 b 393 393 375 564 393 478 b 382 279 393 354 390 317 b 176 -17 356 149 279 42 b 40 -107 128 -44 72 -62 b 22 -162 28 -124 22 -143 b 154 -271 22 -231 86 -271 z m 399 886 b 440 861 415 886 432 871 b 463 817 449 850 463 835 b 444 788 463 804 458 788 b 431 792 439 788 433 788 b 406 839 422 808 421 828 b 375 868 396 846 375 850 b 399 886 375 881 390 886 z "},"*":{"ha":306,"x_min":0,"x_max":0,"o":"m 158 1044 b 106 1021 139 1044 119 1035 b 65 886 76 992 65 939 b 76 790 65 853 69 819 b -35 876 42 824 7 854 b -108 897 -58 889 -82 897 b -185 829 -150 897 -185 871 b -151 754 -185 800 -165 772 b 61 649 -100 693 -24 672 b -103 519 3 610 -57 572 b -140 428 -121 497 -140 461 b -71 361 -140 390 -110 361 b -10 379 -50 361 -28 368 b 140 565 61 418 104 492 b 201 404 156 508 171 454 b 301 336 221 372 253 336 b 368 422 344 336 368 378 b 365 449 368 431 367 440 b 231 653 350 533 285 599 b 418 715 294 669 361 682 b 488 814 450 733 488 765 b 400 882 488 861 447 882 b 244 817 338 882 288 850 b 225 803 238 811 231 808 b 243 922 233 840 243 882 b 158 1044 243 979 218 1044 z m 147 978 b 171 974 156 978 164 976 b 178 968 174 972 175 969 b 174 944 188 964 188 944 b 168 946 172 944 169 946 b 149 953 161 949 156 953 l 139 953 b 122 964 133 953 122 957 b 124 968 122 965 124 967 b 147 978 124 975 139 978 z m 396 839 b 426 831 408 839 418 835 b 421 806 438 825 433 806 b 415 807 419 806 417 807 b 396 814 408 810 403 814 b 386 815 393 814 389 815 b 371 825 381 815 371 819 l 371 829 b 396 839 371 838 388 839 z m -96 838 b -65 829 -83 838 -74 833 b -71 804 -54 824 -58 804 b -76 806 -72 804 -75 806 b -96 813 -83 808 -89 813 b -106 814 -99 813 -103 814 b -121 824 -111 814 -121 818 l -121 828 b -96 838 -121 836 -104 838 z "},"+":{"ha":806,"x_min":0,"x_max":0,"o":"m 524 656 l 494 656 b 486 794 494 701 492 749 b 408 904 481 842 463 904 b 340 793 353 904 343 844 b 336 629 339 739 338 683 b 101 549 257 608 178 578 b 49 496 79 540 49 528 b 113 458 49 468 86 458 b 340 447 188 456 264 450 b 375 250 346 381 357 314 b 426 193 382 226 394 193 b 465 257 454 193 463 229 b 483 446 471 319 478 382 b 651 468 539 449 596 456 b 754 556 694 478 754 501 b 724 613 754 579 740 601 b 524 656 678 646 592 656 z m 619 592 b 676 567 642 588 669 586 l 676 560 b 668 551 676 557 671 551 l 661 551 b 651 556 657 551 654 554 b 610 567 638 561 626 564 b 594 578 603 567 594 571 b 619 592 594 592 607 592 z m 410 822 b 442 806 421 822 442 817 b 428 792 442 796 436 792 b 419 793 425 792 422 793 b 400 796 413 794 407 794 b 385 807 393 796 385 800 l 385 811 b 410 822 385 819 401 822 z "},",":{"ha":517,"x_min":0,"x_max":0,"o":"m 132 83 b 189 -15 132 43 153 4 b 260 -79 217 -29 260 -39 b 206 -149 260 -111 225 -135 b 153 -221 183 -165 153 -182 b 203 -264 153 -249 175 -264 b 256 -250 221 -264 239 -257 b 472 -24 353 -210 451 -137 b 475 13 475 -11 475 0 b 336 207 475 108 410 182 b 281 215 317 213 299 215 b 132 83 201 215 132 163 z m 415 22 l 411 22 b 394 50 401 22 394 40 b 376 94 392 68 386 85 b 356 122 371 100 356 111 l 356 128 b 363 136 356 131 360 136 b 374 136 367 138 369 138 b 422 35 408 125 422 79 l 422 29 b 415 22 422 26 418 22 z "},"-":{"ha":818,"x_min":0,"x_max":0,"o":"m 531 435 b 388 418 482 435 435 428 b 108 326 292 397 200 361 b 56 274 86 318 56 306 b 119 236 56 246 93 236 b 428 222 222 232 325 222 b 658 246 506 222 583 228 b 761 333 701 256 761 279 b 731 390 761 357 747 379 b 531 435 686 424 599 435 z m 626 369 b 683 344 649 365 676 364 l 683 338 b 675 329 683 335 678 329 l 668 329 b 658 333 664 329 661 332 b 617 344 644 339 633 342 b 601 356 610 344 601 349 b 626 369 601 369 614 369 z "},".":{"ha":469,"x_min":0,"x_max":0,"o":"m 276 231 b 128 79 190 231 128 165 b 142 14 128 57 133 33 b 276 -78 163 -33 213 -78 b 425 78 356 -78 425 -7 b 276 231 425 161 361 231 z m 369 53 l 364 53 b 347 81 354 53 347 71 b 331 125 344 100 342 114 b 308 153 325 131 308 140 l 308 158 b 315 167 308 160 314 167 b 322 168 318 168 319 168 b 354 144 338 168 349 151 b 375 65 369 124 375 100 l 375 60 b 369 53 375 57 372 53 z "},"/":{"ha":571,"x_min":0,"x_max":0,"o":"m 151 92 b 540 822 292 329 406 582 b 597 978 567 871 597 917 b 496 1096 597 1043 557 1096 b 468 1093 488 1096 478 1096 b 328 936 394 1075 356 999 b -6 179 214 685 96 436 b -28 90 -17 150 -28 121 b 46 3 -28 42 -1 3 b 151 92 103 3 131 54 z m 511 974 b 504 1001 511 983 508 993 b 499 1015 503 1006 499 1011 b 500 1024 499 1018 500 1021 b 510 1032 500 1028 504 1032 b 532 1022 519 1035 528 1026 b 547 965 540 1011 547 988 b 510 906 547 935 536 906 b 497 919 504 906 497 914 b 511 974 497 942 511 951 z "},":":{"ha":553,"x_min":0,"x_max":0,"o":"m 276 683 b 128 532 190 683 128 618 b 142 467 128 510 133 486 b 276 375 163 419 213 375 b 425 531 356 375 425 446 b 276 683 425 614 361 683 z m 369 506 l 364 506 b 347 533 354 506 347 524 b 331 578 344 553 342 567 b 308 606 325 583 308 593 l 308 611 b 315 619 308 613 314 619 b 322 621 318 621 319 621 b 354 597 338 621 349 604 b 375 518 369 576 375 553 l 375 513 b 369 506 375 510 372 506 z m 276 231 b 128 79 190 231 128 165 b 142 14 128 57 133 33 b 276 -78 163 -33 213 -78 b 425 78 356 -78 425 -7 b 276 231 425 161 361 231 z m 369 53 l 364 53 b 347 81 354 53 347 71 b 331 125 344 100 342 114 b 308 153 325 131 308 140 l 308 158 b 315 167 308 160 314 167 b 322 168 318 168 319 168 b 354 144 338 168 349 151 b 375 65 369 124 375 100 l 375 60 b 369 53 375 57 372 53 z "},";":{"ha":608,"x_min":0,"x_max":0,"o":"m 276 686 b 128 535 190 686 128 621 b 142 469 128 513 133 489 b 276 378 163 422 213 378 b 425 533 356 378 425 449 b 276 686 425 617 361 686 z m 369 508 l 364 508 b 347 536 354 508 347 526 b 331 581 344 556 342 569 b 308 608 325 586 308 596 l 308 614 b 315 622 308 615 314 622 b 322 624 318 624 319 624 b 354 600 338 624 349 607 b 375 521 369 579 375 556 l 375 515 b 369 508 375 513 372 508 z m 132 83 b 189 -15 132 43 153 4 b 260 -79 217 -29 260 -39 b 206 -149 260 -111 225 -135 b 153 -221 183 -165 153 -182 b 203 -264 153 -249 175 -264 b 256 -250 221 -264 239 -257 b 472 -24 353 -210 451 -137 b 475 13 475 -11 475 0 b 336 207 475 108 410 182 b 281 215 317 213 299 215 b 132 83 201 215 132 163 z m 415 22 l 411 22 b 394 50 401 22 394 40 b 376 94 392 68 386 85 b 356 122 371 100 356 111 l 356 128 b 363 136 356 131 360 136 b 374 136 367 138 369 138 b 422 35 408 125 422 79 l 422 29 b 415 22 422 26 418 22 z "},"<":{"ha":615,"x_min":0,"x_max":0,"o":"m 571 778 b 522 813 571 800 547 813 l 517 813 b 360 768 461 813 410 790 b 122 640 278 732 199 689 b 19 507 79 614 19 572 b 92 393 19 454 60 418 b 329 254 164 336 250 300 b 506 183 378 226 435 183 l 513 183 b 614 276 571 183 614 217 b 551 389 614 326 581 363 b 381 483 501 432 443 463 b 210 524 325 501 267 508 b 189 547 201 526 182 535 l 193 556 b 208 565 197 560 203 563 b 386 661 267 599 325 632 b 531 731 435 685 483 706 b 571 778 546 739 571 757 z m 428 372 b 442 383 428 382 433 383 l 447 383 b 519 343 479 383 506 365 b 529 314 524 336 532 326 b 513 301 529 306 521 301 b 497 307 507 301 501 304 b 467 331 486 314 476 322 b 428 372 456 340 428 353 z m 522 767 b 504 750 522 758 515 750 b 483 771 493 750 483 760 b 499 782 483 778 492 782 b 522 767 513 782 522 775 z "},"=":{"ha":818,"x_min":0,"x_max":0,"o":"m 564 749 b 421 732 515 749 468 742 b 142 640 325 711 233 675 b 89 588 119 632 89 619 b 153 550 89 560 126 550 b 461 536 256 546 358 536 b 692 560 539 536 617 542 b 794 647 735 569 794 593 b 764 704 794 671 781 693 b 564 749 719 738 632 749 z m 660 683 b 717 658 682 679 710 678 l 717 651 b 708 643 717 649 711 643 l 701 643 b 692 647 697 643 694 646 b 650 658 678 653 667 656 b 635 669 643 658 635 663 b 660 683 635 683 647 683 z m 564 435 b 421 418 515 435 468 428 b 142 326 325 397 233 361 b 89 274 119 318 89 306 b 153 236 89 246 126 236 b 461 222 256 232 358 222 b 692 246 539 222 617 228 b 794 333 735 256 794 279 b 764 390 794 357 781 379 b 564 435 719 424 632 435 z m 660 369 b 717 344 682 365 710 364 l 717 338 b 708 329 717 335 711 329 l 701 329 b 692 333 697 329 694 332 b 650 344 678 339 667 342 b 635 356 643 344 635 349 b 660 369 635 369 647 369 z "},">":{"ha":608,"x_min":0,"x_max":0,"o":"m 40 217 b 90 183 40 194 65 183 l 96 183 b 253 226 151 183 203 204 b 490 354 335 263 414 306 b 592 488 533 381 592 424 b 519 603 592 540 551 578 b 282 740 447 660 361 694 b 106 813 233 768 175 813 l 99 813 b -3 718 43 813 -3 775 b 60 607 -3 668 31 633 b 232 513 110 564 169 533 b 401 471 288 494 344 486 b 422 449 411 468 429 463 l 418 440 b 404 429 414 436 410 432 b 226 333 346 396 288 363 b 82 264 178 310 129 289 b 40 217 67 256 40 238 z m 424 554 b 439 565 424 561 432 565 l 444 565 b 517 525 475 565 503 546 b 525 494 521 518 528 506 b 508 482 525 488 517 482 b 493 488 503 482 497 485 b 463 511 482 494 472 503 b 433 536 453 519 443 526 b 424 554 429 540 424 546 z "},"?":{"ha":704,"x_min":0,"x_max":0,"o":"m 164 653 b 278 724 222 653 249 692 b 344 760 292 740 315 760 b 415 668 389 760 415 713 b 332 519 415 606 364 554 b 282 468 315 501 300 485 b 226 364 256 444 226 413 b 313 274 226 314 263 274 b 400 368 364 274 383 326 b 450 439 411 397 431 417 b 568 588 493 485 533 535 b 644 803 606 646 644 714 b 640 847 644 818 643 832 b 388 1035 618 954 514 1035 b 110 888 264 1035 169 961 b 58 768 88 858 58 817 b 164 653 58 708 101 653 z m 551 889 l 546 889 b 536 896 542 890 539 893 b 513 924 528 904 521 914 b 489 953 504 933 496 942 b 483 967 486 957 483 961 l 483 975 b 492 986 483 979 489 983 b 517 981 504 990 508 986 b 560 906 540 965 560 940 b 558 899 560 903 558 901 b 551 889 558 893 556 889 z m 297 231 b 149 79 211 231 149 165 b 163 14 149 57 154 33 b 297 -78 183 -33 233 -78 b 446 78 376 -78 446 -7 b 297 231 446 161 382 231 z m 390 53 l 385 53 b 368 81 375 53 368 71 b 351 125 365 100 363 114 b 329 153 346 131 329 140 l 329 158 b 336 167 329 160 335 167 b 343 168 339 168 340 168 b 375 144 358 168 369 151 b 396 65 390 124 396 100 l 396 60 b 390 53 396 57 393 53 z "},"@":{"ha":844,"x_min":0,"x_max":0,"o":"m 103 501 b 114 433 103 479 107 457 b 374 253 146 331 250 253 b 500 279 414 253 457 261 b 503 267 500 275 501 271 b 647 147 517 200 569 147 b 715 161 669 147 693 151 b 914 532 836 211 914 376 b 913 564 914 543 914 553 b 385 1083 892 856 644 1051 b 301 1089 357 1088 329 1089 b 10 1007 199 1089 94 1064 b -217 556 -121 921 -217 758 b -206 432 -217 515 -214 475 b 135 -108 -165 219 -29 35 b 368 -219 194 -160 264 -219 b 518 -96 443 -219 518 -175 b 504 -42 518 -78 514 -60 b 354 72 475 14 410 43 b 10 475 200 154 53 289 b -3 576 1 510 -3 544 b 226 925 -3 744 99 879 b 336 944 264 939 301 944 b 582 847 435 944 521 899 b 724 549 660 779 724 669 b 682 385 724 496 711 439 b 622 335 669 363 656 335 b 592 363 606 335 592 343 b 594 376 592 367 593 372 b 644 508 606 422 633 463 b 649 542 647 519 649 531 b 589 621 649 582 628 617 b 539 564 554 621 539 599 b 532 572 536 567 535 569 b 296 707 479 635 404 707 b 103 501 189 707 103 613 z m 735 788 b 728 789 732 788 731 789 b 681 828 707 794 693 815 b 639 876 667 842 644 854 b 660 900 639 892 646 900 b 669 899 663 900 665 900 b 746 807 710 889 743 851 l 746 799 b 735 788 746 794 739 788 z m 575 567 b 599 590 575 582 582 590 b 629 569 614 590 626 582 b 607 540 633 553 622 540 b 575 567 588 540 579 551 z m 438 -106 b 431 -104 435 -106 433 -104 b 383 -65 410 -99 396 -78 b 342 -17 369 -51 347 -39 b 363 7 342 -1 349 7 b 372 6 365 7 368 7 b 449 -86 413 -4 446 -42 l 449 -94 b 438 -106 449 -99 442 -106 z m 279 472 b 379 561 279 522 329 561 b 496 507 429 561 468 535 b 528 486 504 499 513 486 b 503 372 519 449 508 411 b 425 365 478 369 451 365 b 279 472 351 365 279 400 z "},"A":{"ha":956,"x_min":0,"x_max":0,"o":"m 67 206 b 101 210 78 206 89 207 b 79 119 94 179 86 150 b 72 76 76 106 72 90 b 117 19 72 46 89 19 b 181 101 161 19 174 65 b 213 244 192 149 201 197 b 376 263 265 257 321 263 b 531 250 429 263 481 258 b 608 56 551 183 576 118 b 763 -68 635 1 682 -68 b 869 74 835 -68 869 1 b 860 176 869 108 864 144 b 901 172 874 174 888 172 b 989 258 954 172 989 208 b 818 376 989 349 896 368 b 776 529 806 428 790 478 b 592 939 735 675 689 824 b 442 1025 557 979 511 1025 b 378 1010 421 1025 399 1021 b 246 811 306 974 269 892 b 147 394 206 674 182 533 b -24 307 69 385 -8 382 b -25 293 -24 301 -25 297 b 67 206 -25 240 18 206 z m 438 799 b 490 421 476 678 468 546 b 493 407 492 417 492 411 b 393 408 460 408 426 408 b 253 404 346 408 299 407 b 374 790 289 536 322 669 b 411 826 381 806 389 826 b 438 799 426 826 435 813 z m 939 254 b 918 265 929 254 922 260 b 888 301 908 279 901 292 b 863 326 878 307 863 311 b 886 338 863 339 875 342 b 950 272 917 328 944 307 l 950 264 b 939 254 950 258 944 254 z m 558 842 b 551 843 556 842 554 843 b 504 882 531 849 517 869 b 463 931 490 896 468 908 b 483 954 463 946 469 954 b 493 953 486 954 489 954 b 569 861 533 943 567 906 l 569 853 b 558 842 569 849 563 842 z "},"B":{"ha":793,"x_min":0,"x_max":0,"o":"m 315 19 b 519 71 389 19 457 46 b 688 160 579 96 639 122 b 789 331 742 201 789 261 b 765 417 789 358 782 386 b 583 544 731 481 664 525 b 683 715 628 579 683 642 b 661 794 683 740 676 767 b 529 900 635 840 586 876 b 267 950 461 928 361 950 b 33 860 167 950 72 925 b 18 808 22 842 18 825 b 99 707 18 761 58 722 b 110 704 103 706 106 706 b 132 528 118 646 125 586 b 72 474 106 518 72 506 b 135 440 72 449 107 440 l 140 440 b 146 293 143 392 146 342 l 146 222 b 119 156 129 203 119 179 b 315 19 119 64 221 19 z m 632 733 b 625 735 629 733 628 735 b 589 769 606 739 597 756 b 538 822 576 792 560 808 b 497 858 522 832 501 840 b 521 878 497 871 507 878 b 572 847 544 878 561 858 b 617 803 588 833 603 818 b 643 750 628 789 643 772 l 643 743 b 632 733 643 739 636 733 z m 743 358 l 736 358 b 722 365 731 360 726 363 b 679 424 703 382 696 404 b 649 447 671 433 660 440 b 608 482 633 457 613 464 b 628 500 608 496 618 500 b 656 493 638 500 649 496 b 728 426 683 476 707 450 b 754 374 739 413 754 396 l 754 367 b 743 358 754 363 747 358 z m 342 453 l 343 453 b 407 465 365 457 386 460 b 503 386 447 451 503 439 b 479 333 503 367 493 347 b 333 283 443 300 394 289 b 342 453 336 340 339 396 z m 336 697 b 401 681 360 694 382 690 b 451 619 422 671 451 647 b 344 542 451 568 390 549 b 336 697 344 593 342 646 z "},"C":{"ha":849,"x_min":0,"x_max":0,"o":"m 533 544 l 593 544 b 785 613 678 544 746 558 b 811 699 804 639 811 668 b 764 833 811 749 790 797 b 481 961 708 908 599 961 b 325 933 428 961 375 951 b 11 476 158 871 11 697 b 17 400 11 451 13 426 b 521 -29 51 174 246 -29 b 722 11 589 -29 658 -17 b 835 138 771 32 835 68 b 726 219 835 199 785 219 b 689 217 714 219 701 218 l 582 210 b 329 343 461 210 364 253 b 318 397 322 361 318 379 b 533 544 318 513 422 544 z m 735 700 l 728 700 b 692 743 710 704 699 728 b 640 808 679 769 663 792 b 600 851 625 819 606 829 b 621 875 600 867 607 875 b 675 839 646 875 663 854 b 719 783 690 821 706 803 b 746 719 731 767 746 746 l 746 711 b 735 700 746 707 739 700 z m 736 114 b 696 144 736 135 717 144 b 672 157 688 144 672 149 l 672 163 b 706 174 672 175 694 176 b 764 119 733 168 764 151 b 742 75 764 103 757 75 b 731 82 736 75 731 76 l 731 90 b 736 114 733 99 736 104 z "},"D":{"ha":908,"x_min":0,"x_max":0,"o":"m 149 -53 b 236 -49 178 -53 207 -51 b 311 -94 251 -72 276 -94 b 396 -29 353 -94 383 -61 b 399 -21 397 -26 397 -24 b 465 1 421 -15 443 -7 b 735 179 567 39 661 99 b 886 563 822 275 886 415 b 426 1053 886 844 667 1007 b 307 1065 388 1061 347 1065 b 243 1101 294 1083 271 1101 b 169 1039 206 1101 179 1068 b 21 826 92 1007 21 933 b 31 763 21 806 24 785 b 186 621 54 692 110 639 b 211 167 199 469 211 318 l 211 142 b 118 83 178 126 146 107 b 72 10 99 67 72 43 b 149 -53 72 -36 104 -53 z m 767 703 l 760 703 b 724 746 742 707 731 731 b 674 811 713 772 696 794 b 633 854 657 824 639 831 b 638 872 633 861 632 867 b 664 876 640 879 656 878 b 707 842 682 872 696 856 b 751 786 722 824 738 806 b 778 722 763 769 778 749 l 778 714 b 767 703 778 710 771 703 z m 389 600 b 472 576 418 596 446 589 b 574 431 522 554 574 501 b 572 408 574 424 574 417 b 417 222 558 314 489 258 b 413 219 415 221 414 221 b 389 600 410 346 401 474 z "},"E":{"ha":782,"x_min":0,"x_max":0,"o":"m 122 843 b 144 615 131 767 138 692 b 111 568 128 607 111 593 b 150 531 111 546 126 531 b 154 388 153 483 154 435 l 154 314 b 158 260 154 296 154 278 b 42 146 110 235 42 222 b 81 78 42 115 58 89 b 117 72 93 72 104 72 l 157 72 b 539 33 283 72 413 33 b 717 85 614 33 672 40 b 761 201 740 110 761 153 b 536 371 761 329 658 371 b 319 328 460 371 382 351 b 329 524 322 393 326 458 b 568 633 421 524 568 532 b 429 722 568 697 493 722 b 332 706 397 722 364 717 b 325 832 331 747 329 790 b 511 819 388 825 449 819 b 586 822 536 819 561 819 b 733 935 654 831 733 857 b 718 981 733 950 729 967 b 515 1044 681 1031 600 1044 b 293 1013 438 1044 358 1031 b 200 1099 278 1053 251 1099 b 111 974 135 1099 111 1038 l 111 958 b 107 957 110 958 108 957 b 32 893 76 947 32 933 b 122 843 32 850 81 843 z m 536 996 b 619 976 567 996 593 985 b 669 936 636 971 669 958 b 650 925 669 928 658 925 b 619 938 639 926 629 932 b 558 956 601 947 585 956 l 557 956 b 508 979 533 956 508 956 b 536 996 508 990 525 996 z m 683 207 b 649 225 671 207 656 219 b 588 253 632 239 615 253 b 539 286 558 253 539 256 b 567 313 539 301 553 313 b 596 306 576 313 586 308 b 649 283 614 300 632 292 b 699 224 668 274 699 254 b 683 207 699 214 690 207 z m 474 668 b 514 644 490 664 508 661 l 514 638 b 507 629 514 633 510 629 l 503 629 b 481 642 494 629 488 640 b 467 643 476 643 471 642 b 457 650 463 643 457 647 b 456 654 457 651 456 653 b 474 668 456 665 464 668 z "},"F":{"ha":861,"x_min":0,"x_max":0,"o":"m 136 572 b 74 549 115 564 94 557 b 21 494 51 540 21 526 b 85 458 21 468 56 458 b 153 456 107 457 131 457 b 174 178 165 364 174 271 b 172 115 174 157 172 136 b 269 1 172 53 206 1 b 365 126 340 1 363 63 b 379 411 371 221 379 317 l 379 446 l 407 446 b 622 468 479 446 551 451 b 728 558 667 478 728 503 b 643 636 728 600 678 625 b 501 656 597 650 550 656 b 357 640 453 656 404 650 b 225 788 346 711 311 788 b 125 671 153 788 125 735 b 136 572 125 638 132 603 z m 604 1076 b 408 1054 539 1076 472 1068 b 104 968 306 1032 206 999 b 14 911 68 957 31 944 b 8 888 10 903 8 894 b 58 831 8 858 35 836 l 96 826 l 149 826 b 599 796 299 826 449 796 b 861 888 713 796 817 811 b 874 938 871 903 874 921 b 854 1000 874 961 867 982 b 604 1076 811 1063 704 1076 z m 617 992 b 621 1000 617 994 619 997 b 654 1014 628 1010 639 1014 b 692 1008 667 1014 679 1011 b 792 976 726 1000 764 992 b 825 939 803 969 825 957 b 800 925 825 929 811 925 b 761 940 786 926 774 933 b 682 964 739 953 715 964 l 674 964 b 617 992 649 964 617 965 z m 592 592 b 649 567 614 588 642 586 l 649 560 b 639 551 649 556 642 551 l 633 551 b 601 564 622 551 611 563 b 581 567 594 565 588 565 b 567 578 574 567 567 571 b 592 592 567 592 579 592 z "},"G":{"ha":983,"x_min":0,"x_max":0,"o":"m 549 375 b 633 250 549 314 588 268 b 704 193 665 239 704 233 b 567 117 704 133 624 117 b 354 235 471 117 392 172 b 318 360 329 275 318 318 b 390 529 318 424 344 486 b 493 590 419 557 456 576 b 839 697 608 633 740 626 b 919 838 882 728 919 775 b 878 950 919 885 900 921 b 531 1088 813 1033 671 1088 b 371 1061 475 1088 421 1079 b 21 507 168 988 21 775 b 293 -32 21 261 135 68 b 549 -106 371 -81 461 -106 b 818 -10 647 -106 743 -75 b 947 261 888 51 947 142 b 769 525 947 386 875 496 b 717 532 751 531 733 532 b 549 375 624 532 549 465 z m 810 788 l 801 788 b 786 796 796 789 790 792 b 738 879 764 818 757 853 b 704 913 728 892 717 903 b 658 963 688 925 664 938 b 682 990 658 978 668 990 b 693 988 686 990 689 989 b 743 947 715 978 728 964 b 793 885 761 926 778 907 b 822 810 807 867 822 838 l 822 800 b 810 788 822 794 817 788 z m 794 408 b 851 360 818 399 839 382 b 856 344 854 354 856 350 b 836 325 856 333 849 325 b 783 374 811 325 804 365 b 756 396 774 381 756 379 b 782 411 756 410 769 411 b 794 408 786 411 790 410 z "},"H":{"ha":1038,"x_min":0,"x_max":0,"o":"m 19 438 b 114 376 19 399 69 376 b 167 147 132 300 150 224 b 204 44 175 111 183 75 b 290 -4 222 21 251 -4 b 396 135 365 -4 386 72 b 424 340 406 203 415 271 b 621 306 489 328 556 315 b 619 176 619 263 619 219 l 619 122 b 638 4 619 82 621 40 b 729 -62 653 -29 683 -62 b 774 -49 744 -62 760 -57 b 843 71 813 -25 831 25 b 890 289 863 143 878 215 b 976 368 929 294 976 325 b 921 444 976 401 949 432 b 915 447 919 446 917 446 b 958 696 928 531 940 614 b 983 860 971 750 983 804 b 833 1054 983 960 933 1054 b 696 965 771 1054 721 1007 b 647 781 664 910 654 844 b 625 475 636 679 629 576 b 442 494 564 481 503 489 b 464 696 450 561 457 629 b 474 818 468 736 474 778 b 453 946 474 863 468 904 b 256 1096 426 1021 354 1096 b 67 964 165 1096 94 1031 b 39 819 46 918 39 869 b 44 736 39 792 42 764 b 85 504 53 658 68 582 b 19 438 53 500 19 474 z m 379 842 l 372 842 b 340 889 353 846 344 871 b 303 965 335 919 324 947 b 261 1011 288 978 267 990 b 282 1035 261 1026 268 1035 b 336 999 307 1035 324 1014 b 390 861 363 964 390 918 l 390 853 b 379 842 390 849 383 842 z m 913 811 l 906 811 b 869 896 875 818 879 867 b 849 931 865 908 857 921 b 813 976 838 944 818 957 b 833 1000 813 993 822 1000 b 861 990 843 1000 854 996 b 924 844 900 963 924 907 l 924 831 b 922 822 924 828 922 825 b 913 811 922 817 918 811 z "},"I":{"ha":461,"x_min":0,"x_max":0,"o":"m 365 374 b 403 696 378 481 389 588 b 411 810 407 732 411 769 b 357 972 411 878 390 935 b 222 1039 328 1007 282 1039 b 149 1022 197 1039 172 1033 b 33 800 74 988 33 910 b 65 561 33 713 49 639 b 144 225 90 449 119 338 b 253 94 158 164 179 94 b 329 157 297 94 318 124 b 365 374 349 222 357 300 z m 344 813 b 336 803 344 808 340 803 l 329 803 b 308 825 319 807 311 814 b 281 906 300 856 299 886 b 249 946 269 918 251 926 l 249 953 b 269 964 249 964 260 964 b 313 939 292 964 303 951 b 344 831 333 910 344 878 z "},"J":{"ha":735,"x_min":0,"x_max":0,"o":"m 351 413 b 331 226 351 350 346 288 b 317 182 326 211 324 196 b 221 118 300 147 268 118 b 78 267 136 118 90 193 b 25 344 72 300 64 344 b -22 281 -10 344 -22 314 b -19 247 -22 269 -21 258 b 17 136 -12 208 -1 171 b 172 0 50 74 107 25 b 281 -19 207 -12 244 -19 b 421 11 329 -19 376 -8 b 606 183 499 46 564 108 b 678 526 664 286 678 394 b 671 765 678 606 672 686 b 647 971 669 835 671 906 b 492 1097 624 1032 572 1097 b 347 990 422 1097 371 1040 b 321 842 326 943 321 893 b 351 413 321 696 351 556 z m 589 857 l 581 857 b 553 901 564 861 557 883 b 525 976 546 933 542 956 b 489 1022 514 990 494 1003 b 510 1046 489 1039 499 1046 b 536 1036 519 1046 529 1042 b 600 892 575 1008 600 956 l 600 876 b 599 868 600 874 599 871 b 589 857 599 863 594 857 z "},"K":{"ha":961,"x_min":0,"x_max":0,"o":"m 967 131 b 906 268 967 189 936 232 b 713 432 851 333 785 386 b 489 551 642 476 563 510 b 472 574 481 556 472 563 b 483 599 472 585 478 593 b 853 860 578 718 726 772 b 917 947 879 878 917 904 b 843 1011 917 986 878 1011 l 839 1011 b 753 985 808 1011 779 999 b 464 750 642 929 533 851 b 467 817 465 772 467 794 b 447 946 467 861 463 904 b 249 1096 421 1021 346 1096 b 60 964 158 1096 88 1031 b 33 824 40 919 33 872 b 39 736 33 794 36 765 b 161 147 60 538 119 343 b 197 44 169 111 176 75 b 283 -4 214 21 244 -4 b 389 135 357 -4 379 72 b 419 361 400 210 410 285 b 431 349 424 357 426 353 b 610 160 489 283 549 221 b 822 22 665 104 731 38 b 850 21 832 21 840 21 b 967 131 918 21 967 64 z m 381 824 l 374 824 b 338 908 343 831 347 879 b 317 943 333 921 325 933 b 281 989 306 957 286 969 b 301 1013 281 1006 290 1013 b 329 1003 311 1013 322 1008 b 392 857 368 975 392 919 l 392 843 b 390 835 392 840 390 838 b 381 824 390 829 386 824 z m 840 922 b 796 960 819 922 800 943 b 819 985 796 975 806 985 b 828 983 822 985 825 983 b 871 947 847 979 871 969 b 840 922 871 932 856 922 z m 881 136 l 874 136 b 826 190 850 142 839 174 b 808 211 821 197 815 204 b 782 249 797 222 786 232 b 800 272 782 264 788 272 b 856 236 826 272 843 253 b 892 156 872 217 892 189 l 892 147 b 881 136 892 143 885 136 z "},"L":{"ha":856,"x_min":0,"x_max":0,"o":"m 739 318 b 675 310 717 318 696 315 b 415 139 571 281 494 197 b 401 135 413 136 407 135 b 394 144 396 135 394 139 b 396 157 394 149 394 153 b 471 696 442 333 458 514 b 475 790 472 726 475 758 b 450 949 475 844 469 899 b 267 1096 424 1019 360 1096 b 88 963 178 1096 117 1028 b 51 736 57 892 54 813 b 49 593 50 689 49 640 b 86 210 49 464 57 335 b 172 26 101 143 125 75 b 407 -58 226 -29 307 -58 b 703 0 515 -58 607 -29 b 832 56 747 14 793 29 b 904 178 867 81 904 122 b 739 318 904 265 825 318 z m 383 824 l 376 824 b 340 908 346 831 350 879 b 319 943 336 921 328 933 b 283 989 308 957 289 969 b 304 1013 283 1006 293 1013 b 332 1003 314 1013 325 1008 b 394 857 371 975 394 919 l 394 843 b 393 835 394 840 393 838 b 383 824 393 829 389 824 z m 815 153 b 808 154 813 153 811 154 b 794 161 803 156 799 158 b 742 225 775 178 749 197 l 742 235 b 771 247 742 247 758 250 b 826 172 801 240 826 208 l 826 164 b 815 153 826 160 819 153 z "},"M":{"ha":1197,"x_min":0,"x_max":0,"o":"m 782 597 b 803 257 786 483 790 369 b 824 149 807 221 813 183 b 982 21 844 83 896 21 b 1143 156 1069 21 1121 90 b 1161 301 1158 201 1161 253 l 1161 332 b 1088 844 1156 506 1133 678 b 899 1044 1063 940 1017 1044 b 789 1007 858 1044 819 1031 b 682 824 732 964 706 899 l 608 589 b 581 563 603 576 597 563 b 551 589 564 563 557 576 l 467 858 b 403 1011 450 911 435 965 b 281 1086 379 1046 336 1086 b 139 956 203 1086 161 1014 b 50 478 79 804 71 639 b 35 313 42 421 35 365 b 90 119 35 240 49 174 b 222 50 117 85 164 50 b 376 171 304 50 353 110 b 396 290 390 208 396 250 b 392 358 396 314 393 336 b 353 633 383 450 368 542 b 368 665 350 649 353 665 b 383 649 375 665 382 654 l 460 488 b 500 401 474 460 486 429 b 599 322 518 367 549 322 b 688 424 660 322 678 371 b 754 607 700 488 722 550 b 769 619 756 611 763 619 b 782 597 781 619 782 608 z m 1006 876 l 1006 868 b 996 858 1006 864 1000 858 l 988 858 b 974 865 982 860 978 863 b 907 929 949 883 924 903 b 900 946 904 935 901 940 b 928 971 900 964 913 971 b 1006 876 975 971 1004 917 z m 372 933 l 372 925 b 363 915 372 921 367 915 l 354 915 b 340 922 349 917 344 919 b 274 986 315 940 290 960 b 267 1003 271 992 268 997 b 294 1028 267 1021 279 1028 b 372 933 342 1028 371 974 z "},"N":{"ha":917,"x_min":0,"x_max":0,"o":"m 346 336 b 360 326 357 336 354 332 b 531 71 403 233 460 146 b 657 0 560 40 601 0 b 796 175 750 0 779 99 b 864 674 832 339 864 507 b 846 875 864 742 858 808 b 794 1000 838 919 825 967 b 690 1046 771 1026 733 1046 b 639 1036 674 1046 656 1043 b 521 801 558 1004 521 910 l 521 794 b 572 365 521 651 561 508 b 572 346 572 358 574 353 b 547 329 572 336 558 325 b 522 364 532 335 526 347 b 436 757 490 494 461 625 b 378 946 424 822 411 889 b 247 1039 354 988 308 1039 b 106 897 164 1039 126 961 b 54 349 49 722 61 533 b 53 260 53 318 53 288 b 100 46 53 176 60 104 b 213 -24 124 13 160 -24 b 333 82 278 -24 317 31 b 343 164 340 108 343 136 b 333 304 343 211 333 258 b 346 336 333 318 335 336 z m 332 872 l 332 864 b 322 853 332 858 328 853 l 314 853 b 301 861 310 854 306 858 b 236 931 276 881 253 903 b 229 949 233 936 231 942 l 229 958 b 254 975 229 969 243 975 b 332 872 304 975 329 917 z m 769 903 l 769 896 b 760 886 769 892 764 886 l 753 886 b 739 893 749 888 743 890 b 676 949 715 908 693 925 b 669 964 674 953 671 958 l 669 972 b 696 986 669 982 682 986 b 769 903 739 986 767 940 z "},"O":{"ha":818,"x_min":0,"x_max":0,"o":"m 386 642 b 297 844 386 724 356 807 b 369 910 319 868 343 890 b 467 946 394 928 426 946 b 621 769 567 946 604 850 b 636 621 631 721 636 671 b 596 394 636 543 624 467 b 479 283 578 346 547 283 b 396 335 443 283 410 310 b 371 443 376 365 371 403 b 386 642 371 507 386 576 z m 311 689 l 311 681 b 300 671 311 675 306 671 l 293 671 b 279 678 288 672 283 675 b 213 742 254 696 229 715 b 206 758 210 747 207 753 b 233 783 206 776 218 783 b 311 689 281 783 310 729 z m 572 1026 b 619 967 599 1026 619 988 b 618 963 619 965 618 964 b 613 956 618 958 617 956 l 607 956 b 558 999 589 965 568 982 b 554 1010 557 1001 554 1006 l 554 1015 b 572 1026 554 1022 565 1026 z m 219 869 b 203 868 214 869 208 868 b 39 667 100 856 61 757 b 17 486 25 608 17 547 b 25 389 17 453 19 421 b 157 147 42 297 86 208 b 369 68 217 96 293 68 b 415 71 385 68 400 68 b 710 314 556 92 656 201 b 779 617 757 407 779 513 b 664 1000 779 760 736 911 b 482 1093 624 1049 564 1093 b 219 869 336 1093 253 979 z "},"P":{"ha":801,"x_min":0,"x_max":0,"o":"m 149 343 l 193 343 l 193 265 b 192 229 193 253 192 240 b 203 156 192 204 194 179 b 285 90 215 124 243 90 b 361 149 321 90 349 122 b 378 249 375 179 376 215 b 382 360 379 286 381 322 b 389 361 385 360 386 361 b 757 642 556 396 701 493 b 778 758 771 679 778 718 b 754 876 778 799 771 839 b 390 1101 694 1008 551 1076 b 289 1110 357 1107 324 1110 b 188 1097 254 1110 221 1106 b 14 896 100 1072 14 1007 b 164 729 14 808 82 740 b 188 488 172 649 182 568 b 81 414 140 479 94 456 b 78 394 79 407 78 400 b 149 343 78 360 110 343 z m 682 856 l 682 847 b 671 838 682 842 676 838 l 664 838 b 650 844 658 839 654 842 b 583 908 625 863 600 882 b 576 925 581 914 578 919 b 604 950 576 943 589 950 b 682 856 651 950 681 896 z m 388 728 b 513 614 447 717 513 683 b 389 494 513 542 450 506 b 390 600 390 529 390 565 b 388 728 390 643 390 685 z "},"Q":{"ha":836,"x_min":0,"x_max":0,"o":"m 385 642 b 296 844 385 724 354 807 b 368 910 318 868 342 890 b 465 946 393 928 425 946 b 619 769 565 946 603 850 b 635 619 629 721 635 669 b 617 465 635 568 629 515 b 510 544 593 500 567 544 b 436 461 465 544 436 507 b 478 358 436 421 457 390 b 525 297 493 338 508 317 b 478 283 515 288 493 283 b 394 335 442 283 408 310 b 369 443 375 365 369 403 b 385 642 369 507 385 576 z m 310 689 l 310 681 b 299 671 310 675 304 671 l 292 671 b 278 678 286 672 282 675 b 211 742 253 696 228 715 b 204 758 208 747 206 753 b 232 783 204 776 217 783 b 310 689 279 783 308 729 z m 571 1026 b 618 967 597 1026 618 988 b 617 963 618 965 617 964 b 611 956 617 958 615 956 l 606 956 b 557 999 588 965 567 982 b 553 1010 556 1001 553 1006 l 553 1015 b 571 1026 553 1022 564 1026 z m 518 503 b 564 444 546 503 564 467 l 564 439 b 557 433 564 436 560 433 l 553 433 b 504 476 533 443 515 460 b 499 488 503 479 499 483 l 499 493 b 518 503 499 500 513 503 z m 836 100 b 806 175 836 129 818 156 b 713 321 775 224 744 272 b 778 617 757 413 778 514 b 663 1000 778 760 735 911 b 481 1093 622 1049 563 1093 b 218 869 335 1093 251 979 b 201 868 213 869 207 868 b 38 667 99 856 60 757 b 15 486 24 608 15 547 b 24 389 15 453 18 421 b 156 147 40 297 85 208 b 368 68 215 96 292 68 b 624 188 481 68 560 124 b 692 108 647 161 671 136 b 782 40 714 81 733 40 b 836 100 814 40 836 68 z "},"R":{"ha":843,"x_min":0,"x_max":0,"o":"m 132 156 b 142 86 132 132 133 108 b 219 22 153 56 181 22 b 318 179 299 22 313 107 b 338 351 322 236 329 294 b 371 357 349 353 360 356 b 413 332 385 347 399 340 b 622 99 504 275 532 157 b 715 69 650 81 682 69 b 828 178 779 69 828 115 b 786 283 828 218 807 258 b 650 390 750 329 701 364 b 568 425 624 404 596 414 b 763 642 656 468 729 551 b 783 758 776 679 783 718 b 760 876 783 799 776 839 b 396 1101 700 1008 557 1076 b 294 1110 363 1107 329 1110 b 193 1097 260 1110 226 1106 b 19 897 106 1072 19 1007 b 158 731 19 813 82 744 b 151 475 158 646 156 560 b 83 396 121 460 83 440 b 143 343 83 364 110 343 b 132 156 139 281 132 219 z m 689 856 l 689 847 b 678 838 689 842 683 838 l 671 838 b 657 844 665 839 661 842 b 590 908 632 863 607 882 b 583 925 588 914 585 919 b 611 950 583 943 596 950 b 689 856 658 950 688 896 z m 739 222 l 739 214 b 728 204 739 208 733 204 l 721 204 b 707 211 715 206 711 208 b 640 275 682 229 657 249 b 633 292 638 281 635 286 b 661 317 633 310 646 317 b 739 222 708 317 738 263 z m 381 731 b 518 614 444 724 518 686 b 358 492 518 531 436 494 b 381 731 369 571 378 651 z "},"S":{"ha":931,"x_min":0,"x_max":0,"o":"m 583 767 b 649 726 613 767 632 744 b 771 650 676 699 719 650 b 811 660 783 650 797 653 b 882 782 853 681 882 725 b 810 942 882 850 844 903 b 504 1101 744 1019 638 1101 b 192 782 325 1101 192 957 b 290 532 192 690 228 600 b 465 346 347 469 425 425 b 476 310 469 336 476 324 b 426 264 476 278 447 264 b 365 292 404 264 379 275 b 169 488 307 358 293 488 b 13 361 86 488 33 424 b 1 288 4 336 1 311 b 79 82 1 204 43 132 b 501 -162 178 -54 333 -151 b 533 -164 513 -162 522 -164 b 801 -71 631 -164 729 -135 b 906 147 854 -25 906 53 b 896 218 906 169 903 193 b 538 676 836 422 593 468 b 533 711 535 688 533 700 b 583 767 533 743 549 767 z m 771 803 b 750 811 761 803 757 807 b 683 885 725 832 700 856 b 676 903 681 890 678 896 b 706 932 676 922 685 932 b 725 928 713 932 719 931 b 782 824 757 911 779 865 l 782 815 b 771 803 782 811 776 803 z m 815 200 l 815 190 b 804 178 815 186 810 178 b 783 188 794 178 789 183 b 717 260 758 208 733 231 b 710 279 714 265 711 272 b 736 307 710 297 717 307 b 815 200 786 307 814 246 z m 249 292 b 228 300 239 292 235 296 b 161 374 203 321 178 344 b 154 392 158 379 156 385 b 183 421 154 411 163 421 b 203 417 190 421 197 419 b 260 313 235 400 257 354 l 260 304 b 249 292 260 300 254 292 z "},"T":{"ha":957,"x_min":0,"x_max":0,"o":"m 536 586 b 517 597 529 586 522 590 b 500 717 497 628 503 678 b 500 738 500 724 499 731 b 526 760 500 751 513 764 b 569 669 561 751 564 706 b 572 643 571 661 572 651 b 536 586 572 617 563 586 z m 90 858 l 132 858 b 363 844 208 858 286 853 b 326 381 361 689 326 535 b 376 139 326 286 333 200 b 490 72 397 106 439 72 b 600 132 539 72 578 103 b 667 424 651 197 667 318 b 604 824 667 567 635 704 b 679 822 629 822 654 822 b 928 867 774 822 865 825 b 986 964 957 886 986 919 b 835 1094 986 1049 906 1079 b 656 1111 775 1107 715 1111 b 69 1000 458 1111 261 1056 b -26 919 29 989 -26 972 b 90 858 -26 863 36 858 z m 921 957 l 921 949 b 910 939 921 943 915 939 l 903 939 b 889 946 897 940 893 943 b 822 1010 864 964 839 983 b 815 1026 819 1015 817 1021 b 843 1051 815 1044 828 1051 b 921 957 890 1051 919 997 z "},"U":{"ha":904,"x_min":0,"x_max":0,"o":"m 840 661 b 856 769 840 700 856 733 b 849 825 856 790 849 806 b 850 844 849 832 850 838 b 779 956 850 899 833 956 b 768 954 775 956 772 956 b 699 761 703 938 699 842 b 703 549 699 690 703 619 b 597 218 703 410 676 283 b 517 189 578 203 550 189 b 463 203 494 189 476 194 b 357 432 394 243 357 326 b 396 742 357 542 396 629 b 222 965 396 853 335 965 b 156 949 199 965 176 960 b 33 536 39 888 33 713 b 44 393 33 486 36 436 b 411 39 81 203 185 39 b 489 47 438 39 464 42 b 778 292 632 78 724 172 b 833 499 807 354 819 424 b 843 590 839 529 843 560 b 840 661 843 615 840 638 z m 206 876 b 231 889 211 885 219 886 l 242 888 l 254 885 l 283 864 l 304 832 l 313 794 l 313 792 l 311 789 l 311 786 b 301 776 310 779 308 778 l 293 776 l 289 778 l 281 783 l 256 801 l 232 824 l 213 847 l 207 858 l 206 864 z m 746 874 b 772 900 746 889 757 900 b 806 865 790 900 806 883 b 778 836 806 850 793 836 b 746 874 758 836 746 854 z "},"V":{"ha":861,"x_min":0,"x_max":0,"o":"m 782 1078 b 707 994 736 1078 717 1029 b 525 225 633 740 633 467 b 504 201 522 217 515 201 b 485 217 493 201 489 208 b 396 775 417 393 431 589 b 326 950 385 838 367 901 b 193 1019 300 983 250 1019 b 158 1015 182 1019 171 1018 b 29 771 64 989 29 886 l 29 756 b 146 300 35 597 78 442 b 340 63 190 207 251 115 b 478 24 381 39 431 24 b 586 58 518 24 557 33 b 650 150 615 82 635 115 b 832 942 765 396 779 675 b 840 1000 836 961 840 981 b 782 1078 840 1039 821 1078 z m 292 758 l 285 758 b 251 800 265 763 257 783 b 210 868 243 825 228 851 b 172 913 196 881 178 890 b 197 936 172 931 178 936 b 232 919 213 936 222 926 b 281 857 253 903 268 881 b 304 782 293 833 303 808 b 292 758 304 771 304 758 z m 764 1014 b 790 992 776 1014 790 1004 b 763 963 790 974 781 963 b 740 986 751 963 740 976 b 764 1014 740 1001 749 1014 z "},"W":{"ha":1336,"x_min":0,"x_max":0,"o":"m 1135 965 b 990 867 1067 965 1017 914 b 938 686 960 811 950 747 b 875 399 918 590 890 496 b 856 376 872 389 869 369 b 849 383 853 376 849 381 b 846 393 847 386 846 390 b 810 526 838 439 824 482 b 688 656 789 585 765 656 b 639 646 671 656 654 651 b 468 435 553 611 511 513 b 454 422 465 431 461 422 b 440 444 444 422 440 435 b 419 785 436 558 436 672 b 214 1083 397 922 346 1054 b 181 1088 201 1086 192 1088 b 60 1014 124 1088 83 1051 b 31 900 38 979 31 940 b 63 710 31 838 49 771 b 136 196 99 540 99 365 b 314 4 156 101 200 4 b 369 13 332 4 350 7 b 588 274 486 47 538 172 b 697 489 622 346 661 417 b 704 496 699 490 703 496 l 707 496 b 713 492 708 496 713 493 b 714 486 714 490 714 489 b 733 267 726 414 726 340 b 803 40 742 188 758 107 b 935 -47 829 3 875 -47 b 1083 86 1019 -47 1054 28 b 1250 511 1149 224 1199 368 b 1304 738 1276 585 1304 649 b 1135 965 1304 851 1249 965 z m 300 908 l 300 900 b 290 890 300 896 294 890 l 282 890 b 268 897 276 892 272 894 b 201 961 243 915 218 935 b 194 978 199 967 196 972 b 222 1003 194 996 207 1003 b 300 908 269 1003 299 949 z m 1219 797 l 1219 789 b 1210 779 1219 785 1214 779 l 1201 779 b 1188 786 1196 781 1192 783 b 1121 850 1163 804 1138 824 b 1114 867 1118 856 1115 861 b 1142 892 1114 885 1126 892 b 1219 797 1189 892 1218 838 z "},"X":{"ha":1033,"x_min":0,"x_max":0,"o":"m 893 976 b 815 957 867 976 839 969 b 689 838 763 931 725 883 b 526 635 635 769 581 701 b 417 797 489 688 453 742 b 283 958 379 856 340 918 b 172 997 250 982 217 997 b 35 850 88 997 35 932 b 43 794 35 832 38 814 b 140 632 60 733 101 682 b 328 394 203 553 264 472 b 58 104 242 294 153 197 b 11 28 40 86 11 61 b 72 -29 11 -8 38 -29 b 147 0 100 -29 125 -12 b 475 218 260 67 371 139 b 719 -43 553 128 633 40 b 858 -121 756 -78 794 -121 b 951 -28 911 -121 951 -86 b 911 82 951 15 929 50 b 694 406 846 194 771 300 b 947 704 789 496 874 596 b 1008 854 976 749 1008 790 b 893 976 1008 925 963 976 z m 290 839 l 290 831 b 279 821 290 825 285 821 l 272 821 b 258 828 267 822 263 825 b 192 892 233 846 208 865 b 185 908 189 897 186 903 b 213 933 185 926 197 933 b 290 839 260 933 289 879 z m 947 829 l 947 821 b 936 811 947 815 942 811 l 929 811 b 915 818 924 813 919 815 b 849 882 890 836 865 856 b 842 899 846 888 843 893 b 869 924 842 917 854 924 b 947 829 917 924 946 869 z "},"Y":{"ha":976,"x_min":0,"x_max":0,"o":"m 4 874 b 38 769 4 838 18 800 b 178 638 72 715 126 676 b 414 422 263 574 344 503 b 453 378 426 407 439 392 b 428 -86 436 224 432 68 b 482 -181 428 -132 433 -181 b 540 -131 510 -181 531 -147 b 933 767 714 149 890 440 b 940 849 938 793 940 821 b 915 974 940 892 933 935 b 771 1079 893 1025 840 1079 b 594 928 679 1079 626 996 b 504 674 556 846 526 761 b 379 846 465 733 424 790 b 222 988 335 901 288 958 b 143 1004 196 999 169 1004 b 4 874 68 1004 4 951 z m 240 832 b 226 836 235 832 231 835 b 146 886 199 849 169 864 b 132 910 140 892 132 900 b 160 931 132 925 146 931 b 251 853 206 931 240 886 b 254 844 253 850 254 847 b 240 832 254 836 249 832 z m 856 919 b 838 924 850 919 843 922 b 743 967 804 935 771 947 b 726 988 736 972 726 976 b 760 1007 726 1003 744 1007 b 868 938 808 1007 854 968 b 871 931 869 935 871 933 b 856 919 871 919 865 919 z "},"Z":{"ha":926,"x_min":0,"x_max":0,"o":"m 221 681 b 490 738 324 681 401 715 b 510 740 496 739 503 740 b 535 719 524 740 535 735 b 522 700 535 711 526 704 b 146 339 393 583 267 464 b 79 213 115 308 79 269 b 288 35 79 94 190 56 b 482 17 351 22 417 17 b 760 47 575 17 669 28 b 872 96 804 56 843 69 b 911 190 899 121 911 154 b 889 276 911 219 903 249 b 728 374 860 329 804 374 b 508 328 654 374 583 328 b 476 353 490 328 476 335 b 499 389 476 368 490 381 b 743 640 578 475 658 560 b 864 844 794 692 864 747 b 744 1003 864 924 801 975 b 474 1061 661 1044 568 1061 b 311 1047 419 1061 364 1056 b 81 946 219 1032 135 1004 b 31 829 54 918 31 876 b 221 681 31 725 119 681 z m 775 828 b 767 829 772 828 769 829 b 754 836 761 831 758 833 b 719 868 742 846 731 857 b 679 917 706 882 685 894 b 683 935 679 924 678 929 b 710 939 686 942 703 940 b 786 847 750 929 783 892 b 785 839 786 844 785 842 b 775 828 785 833 781 828 z m 817 211 b 808 213 814 211 811 213 b 796 219 803 214 800 217 b 761 251 783 229 772 240 b 721 300 747 265 726 278 b 725 318 721 307 719 313 b 751 322 728 325 744 324 b 828 231 792 313 825 275 b 826 222 828 228 826 225 b 817 211 826 217 822 211 z "},"[":{"ha":607,"x_min":0,"x_max":0,"o":"m 392 4 b 285 -12 356 4 319 -3 b 281 -14 283 -12 282 -14 b 282 18 281 -3 282 7 b 301 571 286 201 301 388 b 289 831 301 658 299 744 b 386 822 321 826 354 822 b 546 932 471 822 546 846 b 393 1039 546 1014 471 1039 b 254 1018 344 1039 297 1026 b 161 1099 242 1056 208 1099 b 71 975 96 1099 71 1039 b 72 947 71 967 71 957 b 38 894 54 936 38 918 b 85 847 38 869 56 847 b 124 251 107 650 124 450 b 117 35 124 179 121 107 b 114 -10 115 21 114 6 b 126 -75 114 -33 117 -57 b 57 -151 94 -92 57 -101 b 118 -199 57 -185 83 -199 l 392 -225 b 515 -190 442 -225 486 -221 b 546 -110 532 -174 546 -142 b 392 4 546 -24 474 4 z m 358 996 b 440 976 389 996 415 985 b 490 936 457 971 490 958 b 471 925 490 926 481 925 b 442 938 460 926 451 932 b 379 956 424 949 406 956 b 329 978 358 956 329 956 b 358 996 329 990 346 996 z m 476 -142 b 442 -122 464 -142 449 -128 b 381 -94 425 -108 408 -94 b 331 -61 353 -94 331 -92 b 360 -36 331 -46 344 -36 b 442 -64 390 -36 418 -53 b 492 -125 463 -74 492 -93 b 476 -142 492 -133 483 -142 z "},"\\":{"ha":581,"x_min":0,"x_max":0,"o":"m -31 971 b 22 818 -31 911 -4 865 b 426 97 154 576 282 332 b 489 22 443 69 463 42 b 542 4 506 11 519 4 b 614 88 589 4 614 39 b 592 169 613 115 603 143 b 240 918 486 424 351 665 b 164 1046 221 964 200 1011 b 72 1088 142 1067 108 1088 b -31 971 8 1088 -31 1033 z m 75 1032 b 157 975 115 1032 144 1004 b 161 964 158 972 161 968 b 149 942 161 954 157 942 b 143 940 147 942 144 940 b 115 974 128 940 121 964 b 75 999 108 986 92 996 b 53 1014 67 1001 53 1003 b 75 1032 53 1026 63 1032 z "},"]":{"ha":608,"x_min":0,"x_max":0,"o":"m 217 869 b 324 886 253 869 289 876 b 326 888 325 886 325 888 b 325 856 326 876 325 867 b 307 311 321 675 307 492 b 319 43 307 221 310 132 b 222 51 288 47 254 51 b 61 -61 136 51 61 28 b 214 -165 61 -140 138 -165 b 335 -149 254 -165 297 -158 b 353 -143 342 -147 346 -144 b 447 -225 365 -182 399 -225 b 536 -101 513 -225 536 -165 b 535 -74 536 -92 536 -83 b 569 -22 553 -62 569 -47 b 524 26 569 3 553 26 b 485 622 501 224 485 424 b 492 839 485 694 488 767 b 494 883 493 853 494 868 b 482 949 494 907 492 931 b 550 1026 514 965 550 975 b 489 1072 550 1058 525 1072 l 215 1099 b 61 986 132 1099 61 1075 b 217 869 61 900 133 869 z m 504 1018 b 463 989 504 997 482 989 b 425 1025 442 989 425 1004 b 453 1051 425 1039 439 1051 l 457 1051 b 504 1018 476 1051 504 1038 z "},"^":{"ha":754,"x_min":0,"x_max":0,"o":"m 97 540 b 143 581 118 540 135 564 b 213 725 168 628 189 676 b 308 903 242 786 275 844 b 328 922 313 911 319 918 b 350 900 342 929 347 910 b 392 731 365 843 374 786 b 486 560 413 668 443 610 b 597 496 513 531 547 496 b 692 597 654 496 692 542 l 692 604 b 619 782 692 676 647 732 b 482 1018 574 861 539 946 b 367 1092 458 1049 418 1092 b 233 989 301 1092 260 1032 b 106 751 185 913 142 833 b 63 594 83 701 63 650 b 97 540 63 567 72 540 z m 454 938 l 447 938 b 436 944 443 939 439 942 b 407 971 426 953 417 963 b 372 1011 394 981 376 993 l 372 1019 b 397 1031 372 1029 388 1033 b 463 953 431 1022 463 990 l 463 946 b 454 938 463 942 458 938 z "},"_":{"ha":614,"x_min":0,"x_max":0,"o":"m 392 -14 b 292 -25 358 -14 325 -18 b 97 -89 225 -40 161 -65 b 60 -126 81 -96 60 -104 b 104 -153 60 -146 86 -153 b 321 -162 176 -156 249 -162 b 482 -146 375 -162 429 -158 b 554 -85 511 -139 554 -122 b 532 -44 554 -68 544 -53 b 392 -14 501 -22 440 -14 z m 460 -60 b 499 -76 475 -62 494 -64 l 499 -82 b 493 -87 499 -83 496 -87 l 489 -87 b 482 -85 486 -87 483 -86 b 453 -76 472 -81 464 -79 b 442 -69 447 -76 442 -74 b 460 -60 442 -60 450 -60 z "},"`":{"ha":358,"x_min":0,"x_max":0,"o":"m 336 726 b 317 769 336 743 324 758 b 185 988 274 842 243 926 b 93 1035 163 1011 133 1035 b 24 960 51 1035 24 1000 b 35 908 24 942 29 925 b 250 710 74 815 169 764 b 301 689 265 700 279 689 b 336 726 322 689 336 704 z m 181 871 b 172 872 178 871 175 872 b 160 879 167 874 164 876 b 125 911 147 889 136 900 b 85 960 110 926 90 936 b 89 978 85 967 83 972 b 115 982 92 985 107 983 b 192 890 156 972 189 935 b 190 882 192 888 190 885 b 181 871 190 876 186 871 z "},"a":{"ha":956,"x_min":0,"x_max":0,"o":"m 67 206 b 101 210 78 206 89 207 b 79 119 94 179 86 150 b 72 76 76 106 72 90 b 117 19 72 46 89 19 b 181 101 161 19 174 65 b 213 244 192 149 201 197 b 376 263 265 257 321 263 b 531 250 429 263 481 258 b 608 56 551 183 576 118 b 763 -68 635 1 682 -68 b 869 74 835 -68 869 1 b 860 176 869 108 864 144 b 901 172 874 174 888 172 b 989 258 954 172 989 208 b 818 376 989 349 896 368 b 776 529 806 428 790 478 b 592 939 735 675 689 824 b 442 1025 557 979 511 1025 b 378 1010 421 1025 399 1021 b 246 811 306 974 269 892 b 147 394 206 674 182 533 b -24 307 69 385 -8 382 b -25 293 -24 301 -25 297 b 67 206 -25 240 18 206 z m 438 799 b 490 421 476 678 468 546 b 493 407 492 417 492 411 b 393 408 460 408 426 408 b 253 404 346 408 299 407 b 374 790 289 536 322 669 b 411 826 381 806 389 826 b 438 799 426 826 435 813 z m 939 254 b 918 265 929 254 922 260 b 888 301 908 279 901 292 b 863 326 878 307 863 311 b 886 338 863 339 875 342 b 950 272 917 328 944 307 l 950 264 b 939 254 950 258 944 254 z m 558 842 b 551 843 556 842 554 843 b 504 882 531 849 517 869 b 463 931 490 896 468 908 b 483 954 463 946 469 954 b 493 953 486 954 489 954 b 569 861 533 943 567 906 l 569 853 b 558 842 569 849 563 842 z "},"b":{"ha":793,"x_min":0,"x_max":0,"o":"m 315 19 b 519 71 389 19 457 46 b 688 160 579 96 639 122 b 789 331 742 201 789 261 b 765 417 789 358 782 386 b 583 544 731 481 664 525 b 683 715 628 579 683 642 b 661 794 683 740 676 767 b 529 900 635 840 586 876 b 267 950 461 928 361 950 b 33 860 167 950 72 925 b 18 808 22 842 18 825 b 99 707 18 761 58 722 b 110 704 103 706 106 706 b 132 528 118 646 125 586 b 72 474 106 518 72 506 b 135 440 72 449 107 440 l 140 440 b 146 293 143 392 146 342 l 146 222 b 119 156 129 203 119 179 b 315 19 119 64 221 19 z m 632 733 b 625 735 629 733 628 735 b 589 769 606 739 597 756 b 538 822 576 792 560 808 b 497 858 522 832 501 840 b 521 878 497 871 507 878 b 572 847 544 878 561 858 b 617 803 588 833 603 818 b 643 750 628 789 643 772 l 643 743 b 632 733 643 739 636 733 z m 743 358 l 736 358 b 722 365 731 360 726 363 b 679 424 703 382 696 404 b 649 447 671 433 660 440 b 608 482 633 457 613 464 b 628 500 608 496 618 500 b 656 493 638 500 649 496 b 728 426 683 476 707 450 b 754 374 739 413 754 396 l 754 367 b 743 358 754 363 747 358 z m 342 453 l 343 453 b 407 465 365 457 386 460 b 503 386 447 451 503 439 b 479 333 503 367 493 347 b 333 283 443 300 394 289 b 342 453 336 340 339 396 z m 336 697 b 401 681 360 694 382 690 b 451 619 422 671 451 647 b 344 542 451 568 390 549 b 336 697 344 593 342 646 z "},"c":{"ha":849,"x_min":0,"x_max":0,"o":"m 533 544 l 593 544 b 785 613 678 544 746 558 b 811 699 804 639 811 668 b 764 833 811 749 790 797 b 481 961 708 908 599 961 b 325 933 428 961 375 951 b 11 476 158 871 11 697 b 17 400 11 451 13 426 b 521 -29 51 174 246 -29 b 722 11 589 -29 658 -17 b 835 138 771 32 835 68 b 726 219 835 199 785 219 b 689 217 714 219 701 218 l 582 210 b 329 343 461 210 364 253 b 318 397 322 361 318 379 b 533 544 318 513 422 544 z m 735 700 l 728 700 b 692 743 710 704 699 728 b 640 808 679 769 663 792 b 600 851 625 819 606 829 b 621 875 600 867 607 875 b 675 839 646 875 663 854 b 719 783 690 821 706 803 b 746 719 731 767 746 746 l 746 711 b 735 700 746 707 739 700 z m 736 114 b 696 144 736 135 717 144 b 672 157 688 144 672 149 l 672 163 b 706 174 672 175 694 176 b 764 119 733 168 764 151 b 742 75 764 103 757 75 b 731 82 736 75 731 76 l 731 90 b 736 114 733 99 736 104 z "},"d":{"ha":908,"x_min":0,"x_max":0,"o":"m 149 -53 b 236 -49 178 -53 207 -51 b 311 -94 251 -72 276 -94 b 396 -29 353 -94 383 -61 b 399 -21 397 -26 397 -24 b 465 1 421 -15 443 -7 b 735 179 567 39 661 99 b 886 563 822 275 886 415 b 426 1053 886 844 667 1007 b 307 1065 388 1061 347 1065 b 243 1101 294 1083 271 1101 b 169 1039 206 1101 179 1068 b 21 826 92 1007 21 933 b 31 763 21 806 24 785 b 186 621 54 692 110 639 b 211 167 199 469 211 318 l 211 142 b 118 83 178 126 146 107 b 72 10 99 67 72 43 b 149 -53 72 -36 104 -53 z m 767 703 l 760 703 b 724 746 742 707 731 731 b 674 811 713 772 696 794 b 633 854 657 824 639 831 b 638 872 633 861 632 867 b 664 876 640 879 656 878 b 707 842 682 872 696 856 b 751 786 722 824 738 806 b 778 722 763 769 778 749 l 778 714 b 767 703 778 710 771 703 z m 389 600 b 472 576 418 596 446 589 b 574 431 522 554 574 501 b 572 408 574 424 574 417 b 417 222 558 314 489 258 b 413 219 415 221 414 221 b 389 600 410 346 401 474 z "},"e":{"ha":782,"x_min":0,"x_max":0,"o":"m 122 843 b 144 615 131 767 138 692 b 111 568 128 607 111 593 b 150 531 111 546 126 531 b 154 388 153 483 154 435 l 154 314 b 158 260 154 296 154 278 b 42 146 110 235 42 222 b 81 78 42 115 58 89 b 117 72 93 72 104 72 l 157 72 b 539 33 283 72 413 33 b 717 85 614 33 672 40 b 761 201 740 110 761 153 b 536 371 761 329 658 371 b 319 328 460 371 382 351 b 329 524 322 393 326 458 b 568 633 421 524 568 532 b 429 722 568 697 493 722 b 332 706 397 722 364 717 b 325 832 331 747 329 790 b 511 819 388 825 449 819 b 586 822 536 819 561 819 b 733 935 654 831 733 857 b 718 981 733 950 729 967 b 515 1044 681 1031 600 1044 b 293 1013 438 1044 358 1031 b 200 1099 278 1053 251 1099 b 111 974 135 1099 111 1038 l 111 958 b 107 957 110 958 108 957 b 32 893 76 947 32 933 b 122 843 32 850 81 843 z m 536 996 b 619 976 567 996 593 985 b 669 936 636 971 669 958 b 650 925 669 928 658 925 b 619 938 639 926 629 932 b 558 956 601 947 585 956 l 557 956 b 508 979 533 956 508 956 b 536 996 508 990 525 996 z m 683 207 b 649 225 671 207 656 219 b 588 253 632 239 615 253 b 539 286 558 253 539 256 b 567 313 539 301 553 313 b 596 306 576 313 586 308 b 649 283 614 300 632 292 b 699 224 668 274 699 254 b 683 207 699 214 690 207 z m 474 668 b 514 644 490 664 508 661 l 514 638 b 507 629 514 633 510 629 l 503 629 b 481 642 494 629 488 640 b 467 643 476 643 471 642 b 457 650 463 643 457 647 b 456 654 457 651 456 653 b 474 668 456 665 464 668 z "},"f":{"ha":861,"x_min":0,"x_max":0,"o":"m 136 572 b 74 549 115 564 94 557 b 21 494 51 540 21 526 b 85 458 21 468 56 458 b 153 456 107 457 131 457 b 174 178 165 364 174 271 b 172 115 174 157 172 136 b 269 1 172 53 206 1 b 365 126 340 1 363 63 b 379 411 371 221 379 317 l 379 446 l 407 446 b 622 468 479 446 551 451 b 728 558 667 478 728 503 b 643 636 728 600 678 625 b 501 656 597 650 550 656 b 357 640 453 656 404 650 b 225 788 346 711 311 788 b 125 671 153 788 125 735 b 136 572 125 638 132 603 z m 604 1076 b 408 1054 539 1076 472 1068 b 104 968 306 1032 206 999 b 14 911 68 957 31 944 b 8 888 10 903 8 894 b 58 831 8 858 35 836 l 96 826 l 149 826 b 599 796 299 826 449 796 b 861 888 713 796 817 811 b 874 938 871 903 874 921 b 854 1000 874 961 867 982 b 604 1076 811 1063 704 1076 z m 617 992 b 621 1000 617 994 619 997 b 654 1014 628 1010 639 1014 b 692 1008 667 1014 679 1011 b 792 976 726 1000 764 992 b 825 939 803 969 825 957 b 800 925 825 929 811 925 b 761 940 786 926 774 933 b 682 964 739 953 715 964 l 674 964 b 617 992 649 964 617 965 z m 592 592 b 649 567 614 588 642 586 l 649 560 b 639 551 649 556 642 551 l 633 551 b 601 564 622 551 611 563 b 581 567 594 565 588 565 b 567 578 574 567 567 571 b 592 592 567 592 579 592 z "},"g":{"ha":983,"x_min":0,"x_max":0,"o":"m 549 375 b 633 250 549 314 588 268 b 704 193 665 239 704 233 b 567 117 704 133 624 117 b 354 235 471 117 392 172 b 318 360 329 275 318 318 b 390 529 318 424 344 486 b 493 590 419 557 456 576 b 839 697 608 633 740 626 b 919 838 882 728 919 775 b 878 950 919 885 900 921 b 531 1088 813 1033 671 1088 b 371 1061 475 1088 421 1079 b 21 507 168 988 21 775 b 293 -32 21 261 135 68 b 549 -106 371 -81 461 -106 b 818 -10 647 -106 743 -75 b 947 261 888 51 947 142 b 769 525 947 386 875 496 b 717 532 751 531 733 532 b 549 375 624 532 549 465 z m 810 788 l 801 788 b 786 796 796 789 790 792 b 738 879 764 818 757 853 b 704 913 728 892 717 903 b 658 963 688 925 664 938 b 682 990 658 978 668 990 b 693 988 686 990 689 989 b 743 947 715 978 728 964 b 793 885 761 926 778 907 b 822 810 807 867 822 838 l 822 800 b 810 788 822 794 817 788 z m 794 408 b 851 360 818 399 839 382 b 856 344 854 354 856 350 b 836 325 856 333 849 325 b 783 374 811 325 804 365 b 756 396 774 381 756 379 b 782 411 756 410 769 411 b 794 408 786 411 790 410 z "},"h":{"ha":1038,"x_min":0,"x_max":0,"o":"m 19 438 b 114 376 19 399 69 376 b 167 147 132 300 150 224 b 204 44 175 111 183 75 b 290 -4 222 21 251 -4 b 396 135 365 -4 386 72 b 424 340 406 203 415 271 b 621 306 489 328 556 315 b 619 176 619 263 619 219 l 619 122 b 638 4 619 82 621 40 b 729 -62 653 -29 683 -62 b 774 -49 744 -62 760 -57 b 843 71 813 -25 831 25 b 890 289 863 143 878 215 b 976 368 929 294 976 325 b 921 444 976 401 949 432 b 915 447 919 446 917 446 b 958 696 928 531 940 614 b 983 860 971 750 983 804 b 833 1054 983 960 933 1054 b 696 965 771 1054 721 1007 b 647 781 664 910 654 844 b 625 475 636 679 629 576 b 442 494 564 481 503 489 b 464 696 450 561 457 629 b 474 818 468 736 474 778 b 453 946 474 863 468 904 b 256 1096 426 1021 354 1096 b 67 964 165 1096 94 1031 b 39 819 46 918 39 869 b 44 736 39 792 42 764 b 85 504 53 658 68 582 b 19 438 53 500 19 474 z m 379 842 l 372 842 b 340 889 353 846 344 871 b 303 965 335 919 324 947 b 261 1011 288 978 267 990 b 282 1035 261 1026 268 1035 b 336 999 307 1035 324 1014 b 390 861 363 964 390 918 l 390 853 b 379 842 390 849 383 842 z m 913 811 l 906 811 b 869 896 875 818 879 867 b 849 931 865 908 857 921 b 813 976 838 944 818 957 b 833 1000 813 993 822 1000 b 861 990 843 1000 854 996 b 924 844 900 963 924 907 l 924 831 b 922 822 924 828 922 825 b 913 811 922 817 918 811 z "},"i":{"ha":461,"x_min":0,"x_max":0,"o":"m 365 374 b 403 696 378 481 389 588 b 411 810 407 732 411 769 b 357 972 411 878 390 935 b 222 1039 328 1007 282 1039 b 149 1022 197 1039 172 1033 b 33 800 74 988 33 910 b 65 561 33 713 49 639 b 144 225 90 449 119 338 b 253 94 158 164 179 94 b 329 157 297 94 318 124 b 365 374 349 222 357 300 z m 344 813 b 336 803 344 808 340 803 l 329 803 b 308 825 319 807 311 814 b 281 906 300 856 299 886 b 249 946 269 918 251 926 l 249 953 b 269 964 249 964 260 964 b 313 939 292 964 303 951 b 344 831 333 910 344 878 z "},"j":{"ha":735,"x_min":0,"x_max":0,"o":"m 351 413 b 331 226 351 350 346 288 b 317 182 326 211 324 196 b 221 118 300 147 268 118 b 78 267 136 118 90 193 b 25 344 72 300 64 344 b -22 281 -10 344 -22 314 b -19 247 -22 269 -21 258 b 17 136 -12 208 -1 171 b 172 0 50 74 107 25 b 281 -19 207 -12 244 -19 b 421 11 329 -19 376 -8 b 606 183 499 46 564 108 b 678 526 664 286 678 394 b 671 765 678 606 672 686 b 647 971 669 835 671 906 b 492 1097 624 1032 572 1097 b 347 990 422 1097 371 1040 b 321 842 326 943 321 893 b 351 413 321 696 351 556 z m 589 857 l 581 857 b 553 901 564 861 557 883 b 525 976 546 933 542 956 b 489 1022 514 990 494 1003 b 510 1046 489 1039 499 1046 b 536 1036 519 1046 529 1042 b 600 892 575 1008 600 956 l 600 876 b 599 868 600 874 599 871 b 589 857 599 863 594 857 z "},"k":{"ha":961,"x_min":0,"x_max":0,"o":"m 967 131 b 906 268 967 189 936 232 b 713 432 851 333 785 386 b 489 551 642 476 563 510 b 472 574 481 556 472 563 b 483 599 472 585 478 593 b 853 860 578 718 726 772 b 917 947 879 878 917 904 b 843 1011 917 986 878 1011 l 839 1011 b 753 985 808 1011 779 999 b 464 750 642 929 533 851 b 467 817 465 772 467 794 b 447 946 467 861 463 904 b 249 1096 421 1021 346 1096 b 60 964 158 1096 88 1031 b 33 824 40 919 33 872 b 39 736 33 794 36 765 b 161 147 60 538 119 343 b 197 44 169 111 176 75 b 283 -4 214 21 244 -4 b 389 135 357 -4 379 72 b 419 361 400 210 410 285 b 431 349 424 357 426 353 b 610 160 489 283 549 221 b 822 22 665 104 731 38 b 850 21 832 21 840 21 b 967 131 918 21 967 64 z m 381 824 l 374 824 b 338 908 343 831 347 879 b 317 943 333 921 325 933 b 281 989 306 957 286 969 b 301 1013 281 1006 290 1013 b 329 1003 311 1013 322 1008 b 392 857 368 975 392 919 l 392 843 b 390 835 392 840 390 838 b 381 824 390 829 386 824 z m 840 922 b 796 960 819 922 800 943 b 819 985 796 975 806 985 b 828 983 822 985 825 983 b 871 947 847 979 871 969 b 840 922 871 932 856 922 z m 881 136 l 874 136 b 826 190 850 142 839 174 b 808 211 821 197 815 204 b 782 249 797 222 786 232 b 800 272 782 264 788 272 b 856 236 826 272 843 253 b 892 156 872 217 892 189 l 892 147 b 881 136 892 143 885 136 z "},"l":{"ha":856,"x_min":0,"x_max":0,"o":"m 739 318 b 675 310 717 318 696 315 b 415 139 571 281 494 197 b 401 135 413 136 407 135 b 394 144 396 135 394 139 b 396 157 394 149 394 153 b 471 696 442 333 458 514 b 475 790 472 726 475 758 b 450 949 475 844 469 899 b 267 1096 424 1019 360 1096 b 88 963 178 1096 117 1028 b 51 736 57 892 54 813 b 49 593 50 689 49 640 b 86 210 49 464 57 335 b 172 26 101 143 125 75 b 407 -58 226 -29 307 -58 b 703 0 515 -58 607 -29 b 832 56 747 14 793 29 b 904 178 867 81 904 122 b 739 318 904 265 825 318 z m 383 824 l 376 824 b 340 908 346 831 350 879 b 319 943 336 921 328 933 b 283 989 308 957 289 969 b 304 1013 283 1006 293 1013 b 332 1003 314 1013 325 1008 b 394 857 371 975 394 919 l 394 843 b 393 835 394 840 393 838 b 383 824 393 829 389 824 z m 815 153 b 808 154 813 153 811 154 b 794 161 803 156 799 158 b 742 225 775 178 749 197 l 742 235 b 771 247 742 247 758 250 b 826 172 801 240 826 208 l 826 164 b 815 153 826 160 819 153 z "},"m":{"ha":1197,"x_min":0,"x_max":0,"o":"m 782 597 b 803 257 786 483 790 369 b 824 149 807 221 813 183 b 982 21 844 83 896 21 b 1143 156 1069 21 1121 90 b 1161 301 1158 201 1161 253 l 1161 332 b 1088 844 1156 506 1133 678 b 899 1044 1063 940 1017 1044 b 789 1007 858 1044 819 1031 b 682 824 732 964 706 899 l 608 589 b 581 563 603 576 597 563 b 551 589 564 563 557 576 l 467 858 b 403 1011 450 911 435 965 b 281 1086 379 1046 336 1086 b 139 956 203 1086 161 1014 b 50 478 79 804 71 639 b 35 313 42 421 35 365 b 90 119 35 240 49 174 b 222 50 117 85 164 50 b 376 171 304 50 353 110 b 396 290 390 208 396 250 b 392 358 396 314 393 336 b 353 633 383 450 368 542 b 368 665 350 649 353 665 b 383 649 375 665 382 654 l 460 488 b 500 401 474 460 486 429 b 599 322 518 367 549 322 b 688 424 660 322 678 371 b 754 607 700 488 722 550 b 769 619 756 611 763 619 b 782 597 781 619 782 608 z m 1006 876 l 1006 868 b 996 858 1006 864 1000 858 l 988 858 b 974 865 982 860 978 863 b 907 929 949 883 924 903 b 900 946 904 935 901 940 b 928 971 900 964 913 971 b 1006 876 975 971 1004 917 z m 372 933 l 372 925 b 363 915 372 921 367 915 l 354 915 b 340 922 349 917 344 919 b 274 986 315 940 290 960 b 267 1003 271 992 268 997 b 294 1028 267 1021 279 1028 b 372 933 342 1028 371 974 z "},"n":{"ha":917,"x_min":0,"x_max":0,"o":"m 346 336 b 360 326 357 336 354 332 b 531 71 403 233 460 146 b 657 0 560 40 601 0 b 796 175 750 0 779 99 b 864 674 832 339 864 507 b 846 875 864 742 858 808 b 794 1000 838 919 825 967 b 690 1046 771 1026 733 1046 b 639 1036 674 1046 656 1043 b 521 801 558 1004 521 910 l 521 794 b 572 365 521 651 561 508 b 572 346 572 358 574 353 b 547 329 572 336 558 325 b 522 364 532 335 526 347 b 436 757 490 494 461 625 b 378 946 424 822 411 889 b 247 1039 354 988 308 1039 b 106 897 164 1039 126 961 b 54 349 49 722 61 533 b 53 260 53 318 53 288 b 100 46 53 176 60 104 b 213 -24 124 13 160 -24 b 333 82 278 -24 317 31 b 343 164 340 108 343 136 b 333 304 343 211 333 258 b 346 336 333 318 335 336 z m 332 872 l 332 864 b 322 853 332 858 328 853 l 314 853 b 301 861 310 854 306 858 b 236 931 276 881 253 903 b 229 949 233 936 231 942 l 229 958 b 254 975 229 969 243 975 b 332 872 304 975 329 917 z m 769 903 l 769 896 b 760 886 769 892 764 886 l 753 886 b 739 893 749 888 743 890 b 676 949 715 908 693 925 b 669 964 674 953 671 958 l 669 972 b 696 986 669 982 682 986 b 769 903 739 986 767 940 z "},"o":{"ha":818,"x_min":0,"x_max":0,"o":"m 386 642 b 297 844 386 724 356 807 b 369 910 319 868 343 890 b 467 946 394 928 426 946 b 621 769 567 946 604 850 b 636 621 631 721 636 671 b 596 394 636 543 624 467 b 479 283 578 346 547 283 b 396 335 443 283 410 310 b 371 443 376 365 371 403 b 386 642 371 507 386 576 z m 311 689 l 311 681 b 300 671 311 675 306 671 l 293 671 b 279 678 288 672 283 675 b 213 742 254 696 229 715 b 206 758 210 747 207 753 b 233 783 206 776 218 783 b 311 689 281 783 310 729 z m 572 1026 b 619 967 599 1026 619 988 b 618 963 619 965 618 964 b 613 956 618 958 617 956 l 607 956 b 558 999 589 965 568 982 b 554 1010 557 1001 554 1006 l 554 1015 b 572 1026 554 1022 565 1026 z m 219 869 b 203 868 214 869 208 868 b 39 667 100 856 61 757 b 17 486 25 608 17 547 b 25 389 17 453 19 421 b 157 147 42 297 86 208 b 369 68 217 96 293 68 b 415 71 385 68 400 68 b 710 314 556 92 656 201 b 779 617 757 407 779 513 b 664 1000 779 760 736 911 b 482 1093 624 1049 564 1093 b 219 869 336 1093 253 979 z "},"p":{"ha":801,"x_min":0,"x_max":0,"o":"m 149 343 l 193 343 l 193 265 b 192 229 193 253 192 240 b 203 156 192 204 194 179 b 285 90 215 124 243 90 b 361 149 321 90 349 122 b 378 249 375 179 376 215 b 382 360 379 286 381 322 b 389 361 385 360 386 361 b 757 642 556 396 701 493 b 778 758 771 679 778 718 b 754 876 778 799 771 839 b 390 1101 694 1008 551 1076 b 289 1110 357 1107 324 1110 b 188 1097 254 1110 221 1106 b 14 896 100 1072 14 1007 b 164 729 14 808 82 740 b 188 488 172 649 182 568 b 81 414 140 479 94 456 b 78 394 79 407 78 400 b 149 343 78 360 110 343 z m 682 856 l 682 847 b 671 838 682 842 676 838 l 664 838 b 650 844 658 839 654 842 b 583 908 625 863 600 882 b 576 925 581 914 578 919 b 604 950 576 943 589 950 b 682 856 651 950 681 896 z m 388 728 b 513 614 447 717 513 683 b 389 494 513 542 450 506 b 390 600 390 529 390 565 b 388 728 390 643 390 685 z "},"q":{"ha":836,"x_min":0,"x_max":0,"o":"m 385 642 b 296 844 385 724 354 807 b 368 910 318 868 342 890 b 465 946 393 928 425 946 b 619 769 565 946 603 850 b 635 619 629 721 635 669 b 617 465 635 568 629 515 b 510 544 593 500 567 544 b 436 461 465 544 436 507 b 478 358 436 421 457 390 b 525 297 493 338 508 317 b 478 283 515 288 493 283 b 394 335 442 283 408 310 b 369 443 375 365 369 403 b 385 642 369 507 385 576 z m 310 689 l 310 681 b 299 671 310 675 304 671 l 292 671 b 278 678 286 672 282 675 b 211 742 253 696 228 715 b 204 758 208 747 206 753 b 232 783 204 776 217 783 b 310 689 279 783 308 729 z m 571 1026 b 618 967 597 1026 618 988 b 617 963 618 965 617 964 b 611 956 617 958 615 956 l 606 956 b 557 999 588 965 567 982 b 553 1010 556 1001 553 1006 l 553 1015 b 571 1026 553 1022 564 1026 z m 518 503 b 564 444 546 503 564 467 l 564 439 b 557 433 564 436 560 433 l 553 433 b 504 476 533 443 515 460 b 499 488 503 479 499 483 l 499 493 b 518 503 499 500 513 503 z m 836 100 b 806 175 836 129 818 156 b 713 321 775 224 744 272 b 778 617 757 413 778 514 b 663 1000 778 760 735 911 b 481 1093 622 1049 563 1093 b 218 869 335 1093 251 979 b 201 868 213 869 207 868 b 38 667 99 856 60 757 b 15 486 24 608 15 547 b 24 389 15 453 18 421 b 156 147 40 297 85 208 b 368 68 215 96 292 68 b 624 188 481 68 560 124 b 692 108 647 161 671 136 b 782 40 714 81 733 40 b 836 100 814 40 836 68 z "},"r":{"ha":843,"x_min":0,"x_max":0,"o":"m 132 156 b 142 86 132 132 133 108 b 219 22 153 56 181 22 b 318 179 299 22 313 107 b 338 351 322 236 329 294 b 371 357 349 353 360 356 b 413 332 385 347 399 340 b 622 99 504 275 532 157 b 715 69 650 81 682 69 b 828 178 779 69 828 115 b 786 283 828 218 807 258 b 650 390 750 329 701 364 b 568 425 624 404 596 414 b 763 642 656 468 729 551 b 783 758 776 679 783 718 b 760 876 783 799 776 839 b 396 1101 700 1008 557 1076 b 294 1110 363 1107 329 1110 b 193 1097 260 1110 226 1106 b 19 897 106 1072 19 1007 b 158 731 19 813 82 744 b 151 475 158 646 156 560 b 83 396 121 460 83 440 b 143 343 83 364 110 343 b 132 156 139 281 132 219 z m 689 856 l 689 847 b 678 838 689 842 683 838 l 671 838 b 657 844 665 839 661 842 b 590 908 632 863 607 882 b 583 925 588 914 585 919 b 611 950 583 943 596 950 b 689 856 658 950 688 896 z m 739 222 l 739 214 b 728 204 739 208 733 204 l 721 204 b 707 211 715 206 711 208 b 640 275 682 229 657 249 b 633 292 638 281 635 286 b 661 317 633 310 646 317 b 739 222 708 317 738 263 z m 381 731 b 518 614 444 724 518 686 b 358 492 518 531 436 494 b 381 731 369 571 378 651 z "},"s":{"ha":931,"x_min":0,"x_max":0,"o":"m 583 767 b 649 726 613 767 632 744 b 771 650 676 699 719 650 b 811 660 783 650 797 653 b 882 782 853 681 882 725 b 810 942 882 850 844 903 b 504 1101 744 1019 638 1101 b 192 782 325 1101 192 957 b 290 532 192 690 228 600 b 465 346 347 469 425 425 b 476 310 469 336 476 324 b 426 264 476 278 447 264 b 365 292 404 264 379 275 b 169 488 307 358 293 488 b 13 361 86 488 33 424 b 1 288 4 336 1 311 b 79 82 1 204 43 132 b 501 -162 178 -54 333 -151 b 533 -164 513 -162 522 -164 b 801 -71 631 -164 729 -135 b 906 147 854 -25 906 53 b 896 218 906 169 903 193 b 538 676 836 422 593 468 b 533 711 535 688 533 700 b 583 767 533 743 549 767 z m 771 803 b 750 811 761 803 757 807 b 683 885 725 832 700 856 b 676 903 681 890 678 896 b 706 932 676 922 685 932 b 725 928 713 932 719 931 b 782 824 757 911 779 865 l 782 815 b 771 803 782 811 776 803 z m 815 200 l 815 190 b 804 178 815 186 810 178 b 783 188 794 178 789 183 b 717 260 758 208 733 231 b 710 279 714 265 711 272 b 736 307 710 297 717 307 b 815 200 786 307 814 246 z m 249 292 b 228 300 239 292 235 296 b 161 374 203 321 178 344 b 154 392 158 379 156 385 b 183 421 154 411 163 421 b 203 417 190 421 197 419 b 260 313 235 400 257 354 l 260 304 b 249 292 260 300 254 292 z "},"t":{"ha":957,"x_min":0,"x_max":0,"o":"m 536 586 b 517 597 529 586 522 590 b 500 717 497 628 503 678 b 500 738 500 724 499 731 b 526 760 500 751 513 764 b 569 669 561 751 564 706 b 572 643 571 661 572 651 b 536 586 572 617 563 586 z m 90 858 l 132 858 b 363 844 208 858 286 853 b 326 381 361 689 326 535 b 376 139 326 286 333 200 b 490 72 397 106 439 72 b 600 132 539 72 578 103 b 667 424 651 197 667 318 b 604 824 667 567 635 704 b 679 822 629 822 654 822 b 928 867 774 822 865 825 b 986 964 957 886 986 919 b 835 1094 986 1049 906 1079 b 656 1111 775 1107 715 1111 b 69 1000 458 1111 261 1056 b -26 919 29 989 -26 972 b 90 858 -26 863 36 858 z m 921 957 l 921 949 b 910 939 921 943 915 939 l 903 939 b 889 946 897 940 893 943 b 822 1010 864 964 839 983 b 815 1026 819 1015 817 1021 b 843 1051 815 1044 828 1051 b 921 957 890 1051 919 997 z "},"u":{"ha":904,"x_min":0,"x_max":0,"o":"m 840 661 b 856 769 840 700 856 733 b 849 825 856 790 849 806 b 850 844 849 832 850 838 b 779 956 850 899 833 956 b 768 954 775 956 772 956 b 699 761 703 938 699 842 b 703 549 699 690 703 619 b 597 218 703 410 676 283 b 517 189 578 203 550 189 b 463 203 494 189 476 194 b 357 432 394 243 357 326 b 396 742 357 542 396 629 b 222 965 396 853 335 965 b 156 949 199 965 176 960 b 33 536 39 888 33 713 b 44 393 33 486 36 436 b 411 39 81 203 185 39 b 489 47 438 39 464 42 b 778 292 632 78 724 172 b 833 499 807 354 819 424 b 843 590 839 529 843 560 b 840 661 843 615 840 638 z m 206 876 b 231 889 211 885 219 886 l 242 888 l 254 885 l 283 864 l 304 832 l 313 794 l 313 792 l 311 789 l 311 786 b 301 776 310 779 308 778 l 293 776 l 289 778 l 281 783 l 256 801 l 232 824 l 213 847 l 207 858 l 206 864 z m 746 874 b 772 900 746 889 757 900 b 806 865 790 900 806 883 b 778 836 806 850 793 836 b 746 874 758 836 746 854 z "},"v":{"ha":861,"x_min":0,"x_max":0,"o":"m 782 1078 b 707 994 736 1078 717 1029 b 525 225 633 740 633 467 b 504 201 522 217 515 201 b 485 217 493 201 489 208 b 396 775 417 393 431 589 b 326 950 385 838 367 901 b 193 1019 300 983 250 1019 b 158 1015 182 1019 171 1018 b 29 771 64 989 29 886 l 29 756 b 146 300 35 597 78 442 b 340 63 190 207 251 115 b 478 24 381 39 431 24 b 586 58 518 24 557 33 b 650 150 615 82 635 115 b 832 942 765 396 779 675 b 840 1000 836 961 840 981 b 782 1078 840 1039 821 1078 z m 292 758 l 285 758 b 251 800 265 763 257 783 b 210 868 243 825 228 851 b 172 913 196 881 178 890 b 197 936 172 931 178 936 b 232 919 213 936 222 926 b 281 857 253 903 268 881 b 304 782 293 833 303 808 b 292 758 304 771 304 758 z m 764 1014 b 790 992 776 1014 790 1004 b 763 963 790 974 781 963 b 740 986 751 963 740 976 b 764 1014 740 1001 749 1014 z "},"w":{"ha":1336,"x_min":0,"x_max":0,"o":"m 1135 965 b 990 867 1067 965 1017 914 b 938 686 960 811 950 747 b 875 399 918 590 890 496 b 856 376 872 389 869 369 b 849 383 853 376 849 381 b 846 393 847 386 846 390 b 810 526 838 439 824 482 b 688 656 789 585 765 656 b 639 646 671 656 654 651 b 468 435 553 611 511 513 b 454 422 465 431 461 422 b 440 444 444 422 440 435 b 419 785 436 558 436 672 b 214 1083 397 922 346 1054 b 181 1088 201 1086 192 1088 b 60 1014 124 1088 83 1051 b 31 900 38 979 31 940 b 63 710 31 838 49 771 b 136 196 99 540 99 365 b 314 4 156 101 200 4 b 369 13 332 4 350 7 b 588 274 486 47 538 172 b 697 489 622 346 661 417 b 704 496 699 490 703 496 l 707 496 b 713 492 708 496 713 493 b 714 486 714 490 714 489 b 733 267 726 414 726 340 b 803 40 742 188 758 107 b 935 -47 829 3 875 -47 b 1083 86 1019 -47 1054 28 b 1250 511 1149 224 1199 368 b 1304 738 1276 585 1304 649 b 1135 965 1304 851 1249 965 z m 300 908 l 300 900 b 290 890 300 896 294 890 l 282 890 b 268 897 276 892 272 894 b 201 961 243 915 218 935 b 194 978 199 967 196 972 b 222 1003 194 996 207 1003 b 300 908 269 1003 299 949 z m 1219 797 l 1219 789 b 1210 779 1219 785 1214 779 l 1201 779 b 1188 786 1196 781 1192 783 b 1121 850 1163 804 1138 824 b 1114 867 1118 856 1115 861 b 1142 892 1114 885 1126 892 b 1219 797 1189 892 1218 838 z "},"x":{"ha":1033,"x_min":0,"x_max":0,"o":"m 893 976 b 815 957 867 976 839 969 b 689 838 763 931 725 883 b 526 635 635 769 581 701 b 417 797 489 688 453 742 b 283 958 379 856 340 918 b 172 997 250 982 217 997 b 35 850 88 997 35 932 b 43 794 35 832 38 814 b 140 632 60 733 101 682 b 328 394 203 553 264 472 b 58 104 242 294 153 197 b 11 28 40 86 11 61 b 72 -29 11 -8 38 -29 b 147 0 100 -29 125 -12 b 475 218 260 67 371 139 b 719 -43 553 128 633 40 b 858 -121 756 -78 794 -121 b 951 -28 911 -121 951 -86 b 911 82 951 15 929 50 b 694 406 846 194 771 300 b 947 704 789 496 874 596 b 1008 854 976 749 1008 790 b 893 976 1008 925 963 976 z m 290 839 l 290 831 b 279 821 290 825 285 821 l 272 821 b 258 828 267 822 263 825 b 192 892 233 846 208 865 b 185 908 189 897 186 903 b 213 933 185 926 197 933 b 290 839 260 933 289 879 z m 947 829 l 947 821 b 936 811 947 815 942 811 l 929 811 b 915 818 924 813 919 815 b 849 882 890 836 865 856 b 842 899 846 888 843 893 b 869 924 842 917 854 924 b 947 829 917 924 946 869 z "},"y":{"ha":976,"x_min":0,"x_max":0,"o":"m 4 874 b 38 769 4 838 18 800 b 178 638 72 715 126 676 b 414 422 263 574 344 503 b 453 378 426 407 439 392 b 428 -86 436 224 432 68 b 482 -181 428 -132 433 -181 b 540 -131 510 -181 531 -147 b 933 767 714 149 890 440 b 940 849 938 793 940 821 b 915 974 940 892 933 935 b 771 1079 893 1025 840 1079 b 594 928 679 1079 626 996 b 504 674 556 846 526 761 b 379 846 465 733 424 790 b 222 988 335 901 288 958 b 143 1004 196 999 169 1004 b 4 874 68 1004 4 951 z m 240 832 b 226 836 235 832 231 835 b 146 886 199 849 169 864 b 132 910 140 892 132 900 b 160 931 132 925 146 931 b 251 853 206 931 240 886 b 254 844 253 850 254 847 b 240 832 254 836 249 832 z m 856 919 b 838 924 850 919 843 922 b 743 967 804 935 771 947 b 726 988 736 972 726 976 b 760 1007 726 1003 744 1007 b 868 938 808 1007 854 968 b 871 931 869 935 871 933 b 856 919 871 919 865 919 z "},"z":{"ha":926,"x_min":0,"x_max":0,"o":"m 221 681 b 490 738 324 681 401 715 b 510 740 496 739 503 740 b 535 719 524 740 535 735 b 522 700 535 711 526 704 b 146 339 393 583 267 464 b 79 213 115 308 79 269 b 288 35 79 94 190 56 b 482 17 351 22 417 17 b 760 47 575 17 669 28 b 872 96 804 56 843 69 b 911 190 899 121 911 154 b 889 276 911 219 903 249 b 728 374 860 329 804 374 b 508 328 654 374 583 328 b 476 353 490 328 476 335 b 499 389 476 368 490 381 b 743 640 578 475 658 560 b 864 844 794 692 864 747 b 744 1003 864 924 801 975 b 474 1061 661 1044 568 1061 b 311 1047 419 1061 364 1056 b 81 946 219 1032 135 1004 b 31 829 54 918 31 876 b 221 681 31 725 119 681 z m 775 828 b 767 829 772 828 769 829 b 754 836 761 831 758 833 b 719 868 742 846 731 857 b 679 917 706 882 685 894 b 683 935 679 924 678 929 b 710 939 686 942 703 940 b 786 847 750 929 783 892 b 785 839 786 844 785 842 b 775 828 785 833 781 828 z m 817 211 b 808 213 814 211 811 213 b 796 219 803 214 800 217 b 761 251 783 229 772 240 b 721 300 747 265 726 278 b 725 318 721 307 719 313 b 751 322 728 325 744 324 b 828 231 792 313 825 275 b 826 222 828 228 826 225 b 817 211 826 217 822 211 z "},"{":{"ha":383,"x_min":0,"x_max":0,"o":"m 332 -186 b 229 -106 332 -119 229 -161 b 236 -76 229 -97 232 -89 b 324 182 265 8 314 81 b 325 203 324 189 325 196 b 249 358 325 274 290 325 b 328 517 292 392 328 444 b 326 538 328 524 326 531 b 239 794 317 638 268 711 b 233 819 236 803 233 811 b 256 857 233 836 240 851 b 335 900 285 868 335 858 b 275 960 335 936 307 956 b 235 957 263 961 247 958 b 56 772 135 943 56 885 b 146 569 56 685 114 629 b 165 499 156 549 165 524 b 106 411 165 454 136 425 b 46 356 81 401 46 389 b 103 307 46 329 81 315 b 163 218 133 293 163 261 b 161 204 163 214 163 210 b 81 50 151 139 107 100 b 53 -54 64 18 53 -18 b 232 -239 53 -165 133 -225 b 265 -242 244 -240 254 -242 b 332 -186 299 -242 332 -221 z m 188 304 b 207 321 188 314 197 321 b 274 251 246 321 269 286 b 275 243 274 249 275 246 b 258 231 275 235 267 231 b 219 257 243 231 229 249 b 188 304 207 268 188 282 z m 263 888 b 232 918 246 888 232 900 b 250 938 232 928 240 938 l 256 938 b 288 911 271 938 288 926 b 263 888 288 896 275 888 z "},"|":{"ha":363,"x_min":0,"x_max":0,"o":"m 261 -136 b 297 433 288 51 297 242 b 286 818 297 561 293 690 b 264 957 283 865 279 914 b 185 1035 253 992 226 1035 b 140 1014 169 1035 153 1026 b 83 840 103 976 90 906 b 65 489 71 724 65 606 b 118 -124 65 283 83 78 b 143 -214 124 -156 129 -187 b 193 -254 153 -231 169 -254 b 203 -253 196 -254 200 -254 b 261 -136 244 -239 253 -183 z m 249 886 l 244 886 b 231 911 236 886 231 903 b 218 950 226 929 226 939 b 200 975 214 956 200 967 l 200 981 b 206 988 200 982 204 988 b 215 988 208 989 213 989 b 254 896 243 974 254 936 b 253 892 254 894 253 893 b 249 886 253 889 251 886 z "},"}":{"ha":383,"x_min":0,"x_max":0,"o":"m 118 960 b 51 904 85 960 51 939 b 107 861 51 869 78 865 b 131 857 115 860 124 860 b 153 819 146 851 153 836 b 147 794 153 811 150 803 b 60 538 118 711 69 638 b 58 517 60 531 58 524 b 135 360 58 446 93 393 b 56 203 92 326 56 275 b 57 182 56 196 57 189 b 144 -76 67 81 115 7 b 150 -101 147 -85 150 -93 b 49 -182 150 -167 49 -122 b 108 -242 49 -218 76 -237 b 149 -239 121 -243 136 -240 b 328 -54 247 -225 328 -165 b 238 149 328 35 269 88 b 218 219 228 169 218 194 b 278 307 218 264 247 293 b 338 363 303 317 338 329 b 281 411 338 389 303 403 b 221 500 250 425 221 457 b 222 514 221 504 221 508 b 303 669 232 579 276 619 b 331 772 319 701 331 736 b 151 957 331 885 251 943 b 118 960 139 958 129 960 z m 190 860 b 210 876 190 869 200 876 b 276 807 249 876 272 842 b 278 799 276 804 278 801 b 261 786 278 790 269 786 b 222 813 246 786 232 804 b 190 860 210 824 190 838 z m 174 107 b 189 126 174 118 179 126 b 243 56 221 126 243 92 b 242 39 243 50 243 44 b 226 22 242 31 235 22 b 208 35 218 22 213 29 b 176 89 196 50 185 71 b 174 107 174 94 174 101 z "},"~":{"ha":913,"x_min":0,"x_max":0,"o":"m 68 336 b 121 274 68 303 86 274 b 204 368 181 274 147 368 b 235 361 217 368 226 365 b 486 258 318 329 388 272 b 522 256 499 257 511 256 b 721 450 640 256 710 344 l 721 460 b 678 524 721 490 710 524 b 626 471 643 524 639 493 b 538 417 611 442 581 417 b 465 440 507 417 488 428 b 371 510 432 461 404 489 b 254 544 338 531 296 544 b 72 375 149 544 90 464 b 68 336 69 363 68 349 z m 357 426 b 347 417 357 422 351 417 b 331 417 342 415 336 415 b 286 428 315 419 301 424 b 222 464 264 433 222 435 b 261 488 222 481 242 488 b 357 435 310 488 340 468 b 357 426 358 432 358 429 z m 692 467 b 669 447 692 456 681 447 b 650 468 656 447 650 457 b 669 490 650 483 660 490 b 692 467 681 490 692 482 z "}}}
